<?xml version="1.0" encoding="utf-8"?>
<!-- Generator: Adobe Illustrator 22.1.0, SVG Export Plug-In . SVG Version: 6.00 Build 0)  -->
<svg version="1.1" id="Слой_1" xmlns="http://www.w3.org/2000/svg" xmlns:xlink="http://www.w3.org/1999/xlink" x="0px" y="0px"
	 viewBox="0 0 220 200" style="enable-background:new 0 0 220 200;" xml:space="preserve">
<style type="text/css">
	.st0{fill:#FFFFFF;}
	.st1{fill:#010207;}
	.st2{fill:url(#SVGID_1_);stroke:#000000;stroke-width:0.1;stroke-miterlimit:10;}
	.st3{fill:#163C94;stroke:#000000;stroke-width:0.1;stroke-miterlimit:10;}
	.st4{fill:url(#SVGID_2_);stroke:#000000;stroke-width:0.1;stroke-miterlimit:10;}
	.st5{fill:url(#SVGID_3_);stroke:#000000;stroke-width:0.1;stroke-miterlimit:10;}
	.st6{fill:url(#SVGID_4_);stroke:#000000;stroke-width:0.1;stroke-miterlimit:10;}
	.st7{fill:url(#SVGID_5_);stroke:#000000;stroke-width:0.1;stroke-miterlimit:10;}
	.st8{fill:url(#SVGID_6_);stroke:#000000;stroke-width:0.1;stroke-miterlimit:10;}
	.st9{fill:url(#SVGID_7_);stroke:#000000;stroke-width:0.1;stroke-miterlimit:10;}
	.st10{fill:url(#SVGID_8_);stroke:#000000;stroke-width:0.1;stroke-miterlimit:10;}
	.st11{fill:url(#SVGID_9_);stroke:#000000;stroke-width:0.1;stroke-miterlimit:10;}
	.st12{fill:url(#SVGID_10_);stroke:#000000;stroke-width:0.1;stroke-miterlimit:10;}
	.st13{fill:url(#SVGID_11_);stroke:#000000;stroke-width:0.1;stroke-miterlimit:10;}
	.st14{fill:url(#SVGID_12_);stroke:#000000;stroke-width:0.1;stroke-miterlimit:10;}
	.st15{fill:url(#SVGID_13_);stroke:#000000;stroke-width:0.1;stroke-miterlimit:10;}
	.st16{fill:url(#SVGID_14_);stroke:#000000;stroke-width:0.1;stroke-miterlimit:10;}
	.st17{fill:url(#SVGID_15_);stroke:#000000;stroke-width:0.1;stroke-miterlimit:10;}
	.st18{fill:url(#SVGID_16_);stroke:#000000;stroke-width:0.1;stroke-miterlimit:10;}
	.st19{fill:url(#SVGID_17_);stroke:#000000;stroke-width:0.1;stroke-miterlimit:10;}
	.st20{fill:url(#SVGID_18_);stroke:#000000;stroke-width:0.1;stroke-miterlimit:10;}
	.st21{fill:url(#SVGID_19_);stroke:#000000;stroke-width:0.1;stroke-miterlimit:10;}
	.st22{fill:#163C94;}
	.st23{fill:none;stroke:#201600;stroke-width:0.1;stroke-miterlimit:10;}
	.st24{fill:url(#SVGID_20_);}
	.st25{fill:url(#SVGID_21_);}
	.st26{fill:url(#SVGID_22_);}
	.st27{fill:url(#SVGID_23_);}
	.st28{font-family:'RobotoSlab-Regular';}
	.st29{font-size:9.5042px;}
	.st30{font-size:9.5038px;}
	.st31{font-size:9.5955px;}
	.st32{font-size:9.5894px;}
	.st33{font-size:9.5604px;}
	.st34{font-size:9.6371px;}
	.st35{font-size:9.6446px;}
	.st36{font-size:9.5851px;}
	.st37{font-size:9.5386px;}
	.st38{font-size:9.5917px;}
	.st39{font-size:9.5419px;}
	.st40{font-size:9.6031px;}
	.st41{font-size:9.5728px;}
	.st42{font-size:9.5119px;}
	.st43{font-size:9.5462px;}
	.st44{font-size:9.5471px;}
	.st45{font-size:9.5233px;}
	.st46{font-size:9.4789px;}
	.st47{font-size:9.4655px;}
	.st48{font-size:9.4366px;}
	.st49{font-size:9.4342px;}
	.st50{font-size:9.465px;}
	.st51{font-size:9.4961px;}
	.st52{font-size:9.53px;}
	.st53{font-size:9.5133px;}
	.st54{font-size:8.8516px;}
	.st55{font-size:9.5286px;}
	.st56{font-size:9.5742px;}
	.st57{font-size:9.5514px;}
	.st58{font-size:9.5775px;}
	.st59{font-size:9.6253px;}
	.st60{font-size:9.5571px;}
	.st61{font-size:9.5927px;}
	.st62{fill:url(#SVGID_24_);stroke:#201600;stroke-width:0.1;stroke-miterlimit:10;}
	.st63{fill:url(#SVGID_25_);stroke:#201600;stroke-width:0.1;stroke-miterlimit:10;}
	.st64{fill:url(#SVGID_26_);stroke:#201600;stroke-width:0.1;stroke-miterlimit:10;}
	.st65{fill:url(#SVGID_27_);stroke:#201600;stroke-width:0.1;stroke-miterlimit:10;}
	.st66{font-size:19.05px;}
	.st67{font-size:5.08px;}
	.st68{font-size:10.8px;}
	.st69{letter-spacing:-1;}
	.st70{fill:url(#SVGID_28_);stroke:#201600;stroke-width:0.1;stroke-miterlimit:10;}
	.st71{fill:url(#SVGID_29_);stroke:#201600;stroke-width:0.1;stroke-miterlimit:10;}
	.st72{fill:url(#SVGID_30_);stroke:#201600;stroke-width:0.1;stroke-miterlimit:10;}
	.st73{fill:url(#SVGID_31_);stroke:#201600;stroke-width:0.1;stroke-miterlimit:10;}
	.st74{fill:url(#SVGID_32_);stroke:#201600;stroke-width:0.1;stroke-miterlimit:10;}
	.st75{fill:url(#SVGID_33_);stroke:#201600;stroke-width:0.1;stroke-miterlimit:10;}
	.st76{fill:url(#SVGID_34_);}
	.st77{fill:url(#SVGID_35_);stroke:#201600;stroke-width:0.1;stroke-miterlimit:10;}
	.st78{fill:url(#SVGID_36_);stroke:#201600;stroke-width:0.1;stroke-miterlimit:10;}
	.st79{fill:none;stroke:#163C94;stroke-width:2.5;stroke-miterlimit:10;}
	.st80{fill:none;stroke:#000000;stroke-width:0.2;stroke-miterlimit:10;}
</style>
<rect x="-39" y="-27" class="st0" width="300.5" height="257"/>
<g>
	<g>
		<circle class="st1" cx="111" cy="66.2" r="48.4"/>
		<linearGradient id="SVGID_1_" gradientUnits="userSpaceOnUse" x1="62.6496" y1="66.08" x2="159.2523" y2="66.08">
			<stop  offset="0" style="stop-color:#163C94"/>
			<stop  offset="1" style="stop-color:#163C94"/>
		</linearGradient>
		<circle class="st2" cx="111" cy="66.1" r="48.3"/>
	</g>
	<g>
		<path class="st3" d="M115.5,22.5l-8.9,0l1-5.5c0-0.2,0.3-0.4,0.7-0.4l5.6,0c0.4,0,0.7,0.2,0.7,0.4L115.5,22.5z"/>
		<g id="Слой_1_2_">
			<linearGradient id="SVGID_2_" gradientUnits="userSpaceOnUse" x1="107.441" y1="17.1943" x2="114.5658" y2="17.1943">
				<stop  offset="0" style="stop-color:#163C94"/>
				<stop  offset="1" style="stop-color:#163C94"/>
			</linearGradient>
			<path class="st4" d="M114.6,23h-7.1l0.8-10.8c0-0.5,0.3-0.8,0.6-0.8h4.5c0.3,0,0.5,0.3,0.6,0.8L114.6,23z"/>
		</g>
	</g>
	<g>
		<path class="st3" d="M99.5,23.9l-8.3,3.2l-1.1-5.5c0-0.2,0.2-0.5,0.5-0.6l5.2-2c0.3-0.1,0.7-0.1,0.8,0.1L99.5,23.9z"/>
		<g id="Слой_1_1_">
			
				<linearGradient id="SVGID_3_" gradientUnits="userSpaceOnUse" x1="77.7914" y1="85.0131" x2="84.9162" y2="85.0131" gradientTransform="matrix(0.9325 -0.3612 0.3612 0.9325 -13.1963 -29.4138)">
				<stop  offset="0" style="stop-color:#163C94"/>
				<stop  offset="1" style="stop-color:#163C94"/>
			</linearGradient>
			<path class="st5" d="M98.8,24.6l-6.6,2.6L89,16.8c-0.1-0.4,0-0.8,0.2-0.9l4.2-1.6c0.3-0.1,0.6,0.1,0.8,0.6L98.8,24.6z"/>
		</g>
	</g>
	<g>
		<path class="st3" d="M85,30.8l-6.6,6l-3-4.7c-0.1-0.2,0-0.5,0.2-0.8l4.1-3.8c0.3-0.2,0.6-0.3,0.8-0.2L85,30.8z"/>
		<g id="Слой_1_3_">
			
				<linearGradient id="SVGID_4_" gradientUnits="userSpaceOnUse" x1="25.645" y1="137.5416" x2="32.7698" y2="137.5416" gradientTransform="matrix(0.739 -0.6737 0.6737 0.739 -36.1269 -52.0744)">
				<stop  offset="0" style="stop-color:#163C94"/>
				<stop  offset="1" style="stop-color:#163C94"/>
			</linearGradient>
			<path class="st6" d="M84.7,31.8l-5.3,4.8l-6.7-8.5c-0.3-0.4-0.3-0.8-0.1-1l3.3-3c0.2-0.2,0.6-0.1,1,0.2L84.7,31.8z"/>
		</g>
	</g>
	<g>
		<path class="st3" d="M74.1,42.6l-4,8l-4.5-3.3c-0.2-0.1-0.2-0.5-0.1-0.8l2.5-5c0.2-0.3,0.4-0.5,0.7-0.4L74.1,42.6z"/>
		<g id="Слой_1_4_">
			
				<linearGradient id="SVGID_5_" gradientUnits="userSpaceOnUse" x1="-41.9556" y1="167.6855" x2="-34.8308" y2="167.6855" gradientTransform="matrix(0.4457 -0.8952 0.8952 0.4457 -65.6951 -64.9212)">
				<stop  offset="0" style="stop-color:#163C94"/>
				<stop  offset="1" style="stop-color:#163C94"/>
			</linearGradient>
			<path class="st7" d="M74.1,43.6L70.9,50l-9.3-5.5c-0.4-0.2-0.6-0.6-0.5-0.8l2-4c0.1-0.3,0.5-0.3,1-0.1L74.1,43.6z"/>
		</g>
	</g>
	<g>
		<path class="st3" d="M68.1,57.5l-0.8,8.9l-5.4-1.5c-0.2-0.1-0.4-0.4-0.3-0.7l0.5-5.6c0-0.4,0.2-0.6,0.5-0.7L68.1,57.5z"/>
		<g id="Слой_1_5_">
			
				<linearGradient id="SVGID_6_" gradientUnits="userSpaceOnUse" x1="-115.8805" y1="171.3738" x2="-108.7557" y2="171.3738" gradientTransform="matrix(9.226836e-02 -0.9957 0.9957 9.226836e-02 -97.9073 -66.2192)">
				<stop  offset="0" style="stop-color:#163C94"/>
				<stop  offset="1" style="stop-color:#163C94"/>
			</linearGradient>
			<path class="st8" d="M68.5,58.4l-0.7,7.1l-10.7-1.8c-0.5-0.1-0.8-0.3-0.7-0.6l0.4-4.4c0-0.3,0.4-0.5,0.9-0.5L68.5,58.4z"/>
		</g>
	</g>
	<g>
		<path class="st3" d="M67.9,73.5l2.4,8.6l-5.5,0.6c-0.2,0-0.5-0.2-0.6-0.6l-1.5-5.4c-0.1-0.3,0-0.7,0.2-0.8L67.9,73.5z"/>
		<g id="Слой_1_6_">
			
				<linearGradient id="SVGID_7_" gradientUnits="userSpaceOnUse" x1="-186.1457" y1="148.1082" x2="-179.0209" y2="148.1082" gradientTransform="matrix(-0.2737 -0.9618 0.9618 -0.2737 -128.4133 -55.7932)">
				<stop  offset="0" style="stop-color:#163C94"/>
				<stop  offset="1" style="stop-color:#163C94"/>
			</linearGradient>
			<path class="st9" d="M68.6,74.3l1.9,6.9l-10.6,2.2c-0.4,0.1-0.8,0-0.9-0.3l-1.2-4.3c-0.1-0.3,0.2-0.6,0.6-0.8L68.6,74.3z"/>
		</g>
	</g>
	<g>
		<path class="st3" d="M73.6,88.6l5.4,7.1l-5,2.5c-0.2,0.1-0.5,0-0.7-0.3l-3.4-4.5c-0.2-0.3-0.3-0.6-0.1-0.8L73.6,88.6z"/>
		<g id="Слой_1_7_">
			
				<linearGradient id="SVGID_8_" gradientUnits="userSpaceOnUse" x1="-243.2616" y1="101.0309" x2="-236.1368" y2="101.0309" gradientTransform="matrix(-0.6026 -0.798 0.798 -0.6026 -153.0929 -35.0512)">
				<stop  offset="0" style="stop-color:#163C94"/>
				<stop  offset="1" style="stop-color:#163C94"/>
			</linearGradient>
			<path class="st10" d="M74.5,89l4.3,5.7l-9.1,5.9c-0.4,0.2-0.8,0.3-1,0L66,97.1c-0.2-0.2,0-0.6,0.3-0.9L74.5,89z"/>
		</g>
	</g>
	<g>
		<path class="st3" d="M84.2,100.5l7.6,4.7l-3.7,4.1c-0.2,0.2-0.5,0.2-0.8,0l-4.7-2.9c-0.3-0.2-0.5-0.5-0.4-0.7L84.2,100.5z"/>
		<g id="Слой_1_8_">
			
				<linearGradient id="SVGID_9_" gradientUnits="userSpaceOnUse" x1="-279.5143" y1="36.5001" x2="-272.3895" y2="36.5001" gradientTransform="matrix(-0.8502 -0.5264 0.5264 -0.8502 -168.6131 -6.7946)">
				<stop  offset="0" style="stop-color:#163C94"/>
				<stop  offset="1" style="stop-color:#163C94"/>
			</linearGradient>
			<path class="st11" d="M85.3,100.6l6.1,3.8l-6.4,8.8c-0.3,0.4-0.6,0.5-0.9,0.4l-3.8-2.3c-0.2-0.1-0.3-0.6,0-1L85.3,100.6z"/>
		</g>
	</g>
	<g>
		<path class="st3" d="M98.5,107.9l8.8,1.6l-2,5.2c-0.1,0.2-0.4,0.3-0.8,0.3l-5.5-1c-0.3-0.1-0.6-0.3-0.6-0.5L98.5,107.9z"/>
		<g id="Слой_1_9_">
			
				<linearGradient id="SVGID_10_" gradientUnits="userSpaceOnUse" x1="-290.0077" y1="-36.7691" x2="-282.8829" y2="-36.7691" gradientTransform="matrix(-0.983 -0.1837 0.1837 -0.983 -172.8778 25.1605)">
				<stop  offset="0" style="stop-color:#163C94"/>
				<stop  offset="1" style="stop-color:#163C94"/>
			</linearGradient>
			<path class="st12" d="M99.5,107.6l7,1.3l-2.8,10.5c-0.1,0.4-0.4,0.7-0.7,0.7l-4.4-0.8c-0.3-0.1-0.4-0.4-0.4-0.9L99.5,107.6z"/>
		</g>
	</g>
	<g>
		<path class="st3" d="M114.5,109.5l8.8-1.6l0,5.6c0,0.2-0.3,0.5-0.6,0.5l-5.5,1c-0.3,0.1-0.7-0.1-0.8-0.3L114.5,109.5z"/>
		<g id="Слой_1_10_">
			
				<linearGradient id="SVGID_11_" gradientUnits="userSpaceOnUse" x1="-273.3246" y1="-108.8813" x2="-266.1998" y2="-108.8813" gradientTransform="matrix(-0.983 0.1837 -0.1837 -0.983 -165.311 56.4983)">
				<stop  offset="0" style="stop-color:#163C94"/>
				<stop  offset="1" style="stop-color:#163C94"/>
			</linearGradient>
			<path class="st13" d="M115.3,108.9l7-1.3l1.2,10.8c0.1,0.5-0.1,0.8-0.4,0.9l-4.4,0.8c-0.3,0.1-0.6-0.2-0.7-0.7L115.3,108.9z"/>
		</g>
	</g>
	<g>
		<path class="st3" d="M130,105.3l7.6-4.7l2.1,5.2c0.1,0.2-0.1,0.5-0.4,0.7l-4.7,2.9c-0.3,0.2-0.6,0.2-0.8,0L130,105.3z"/>
		<g id="Слой_1_11_">
			
				<linearGradient id="SVGID_12_" gradientUnits="userSpaceOnUse" x1="-231.7182" y1="-170.0973" x2="-224.5934" y2="-170.0973" gradientTransform="matrix(-0.8502 0.5264 -0.5264 -0.8502 -146.9346 82.9865)">
				<stop  offset="0" style="stop-color:#163C94"/>
				<stop  offset="1" style="stop-color:#163C94"/>
			</linearGradient>
			<path class="st14" d="M130.5,104.4l6.1-3.8l5,9.6c0.2,0.4,0.2,0.8,0,1l-3.8,2.3c-0.2,0.1-0.6,0-0.9-0.4L130.5,104.4z"/>
		</g>
	</g>
	<g>
		<path class="st3" d="M142.9,95.8l5.4-7.1l3.8,4.1c0.2,0.2,0.1,0.5-0.1,0.8l-3.4,4.5c-0.2,0.3-0.5,0.4-0.7,0.3L142.9,95.8z"/>
		<g id="Слой_1_12_">
			
				<linearGradient id="SVGID_13_" gradientUnits="userSpaceOnUse" x1="-170.8076" y1="-212.1495" x2="-163.6828" y2="-212.1495" gradientTransform="matrix(-0.6026 0.798 -0.798 -0.6026 -120.2306 101.0477)">
				<stop  offset="0" style="stop-color:#163C94"/>
				<stop  offset="1" style="stop-color:#163C94"/>
			</linearGradient>
			<path class="st15" d="M143.1,94.8l4.3-5.7l8.2,7.1c0.3,0.3,0.5,0.7,0.3,0.9l-2.7,3.6c-0.2,0.2-0.6,0.2-1,0L143.1,94.8z"/>
		</g>
	</g>
	<g>
		<path class="st3" d="M151.5,82.2l2.4-8.6l5,2.4c0.2,0.1,0.3,0.4,0.2,0.8l-1.5,5.4c-0.1,0.3-0.3,0.6-0.6,0.6L151.5,82.2z"/>
		<g id="Слой_1_13_">
			
				<linearGradient id="SVGID_14_" gradientUnits="userSpaceOnUse" x1="-98.8191" y1="-229.3586" x2="-91.6943" y2="-229.3586" gradientTransform="matrix(-0.2737 0.9618 -0.9618 -0.2737 -88.8053 108.2426)">
				<stop  offset="0" style="stop-color:#163C94"/>
				<stop  offset="1" style="stop-color:#163C94"/>
			</linearGradient>
			<path class="st16" d="M151.3,81.2l1.9-6.9l10.2,3.7c0.4,0.2,0.7,0.5,0.6,0.7l-1.2,4.3c-0.1,0.3-0.5,0.4-0.9,0.3L151.3,81.2z"/>
		</g>
	</g>
	<g>
		<path class="st3" d="M154.6,66.5l-0.8-8.9l5.5,0.5c0.2,0,0.4,0.3,0.5,0.6l0.5,5.6c0,0.4-0.1,0.7-0.3,0.7L154.6,66.5z"/>
		<g id="Слой_1_14_">
			
				<linearGradient id="SVGID_15_" gradientUnits="userSpaceOnUse" x1="-25.4753" y1="-219.4004" x2="-18.3505" y2="-219.4004" gradientTransform="matrix(9.226836e-02 0.9957 -0.9957 9.226836e-02 -56.903 103.5996)">
				<stop  offset="0" style="stop-color:#163C94"/>
				<stop  offset="1" style="stop-color:#163C94"/>
			</linearGradient>
			<path class="st17" d="M154.1,65.6l-0.7-7.1l10.9-0.2c0.5,0,0.8,0.2,0.8,0.5l0.4,4.4c0,0.3-0.3,0.6-0.8,0.6L154.1,65.6z"/>
		</g>
	</g>
	<g>
		<path class="st3" d="M151.8,50.7l-4-8l5.3-1.6c0.2-0.1,0.5,0.1,0.7,0.4l2.5,5c0.2,0.3,0.1,0.7-0.1,0.8L151.8,50.7z"/>
		<g id="Слой_1_15_">
			
				<linearGradient id="SVGID_16_" gradientUnits="userSpaceOnUse" x1="39.3185" y1="-183.6197" x2="46.4433" y2="-183.6197" gradientTransform="matrix(0.4457 0.8952 -0.8952 0.4457 -28.8322 87.7457)">
				<stop  offset="0" style="stop-color:#163C94"/>
				<stop  offset="1" style="stop-color:#163C94"/>
			</linearGradient>
			<path class="st18" d="M151,50.1l-3.2-6.4l10-4.1c0.4-0.2,0.8-0.1,1,0.1l2,4c0.1,0.3-0.1,0.6-0.5,0.9L151,50.1z"/>
		</g>
	</g>
	<g>
		<path class="st3" d="M143.6,36.9l-6.6-6l4.4-3.4c0.2-0.1,0.5-0.1,0.8,0.2l4.1,3.8c0.3,0.2,0.4,0.6,0.2,0.8L143.6,36.9z"/>
		<g id="Слой_1_16_">
			
				<linearGradient id="SVGID_17_" gradientUnits="userSpaceOnUse" x1="86.8115" y1="-126.849" x2="93.9363" y2="-126.849" gradientTransform="matrix(0.739 0.6737 -0.6737 0.739 -8.3841 62.822)">
				<stop  offset="0" style="stop-color:#163C94"/>
				<stop  offset="1" style="stop-color:#163C94"/>
			</linearGradient>
			<path class="st19" d="M142.6,36.7l-5.3-4.8l7.9-7.5c0.3-0.3,0.7-0.4,0.9-0.2l3.3,3c0.2,0.2,0.2,0.6-0.1,1L142.6,36.7z"/>
		</g>
	</g>
	<g>
		<path class="st3" d="M130.9,27.1l-8.3-3.2l2.9-4.8c0.1-0.2,0.5-0.3,0.8-0.1l5.2,2c0.3,0.1,0.5,0.4,0.5,0.6L130.9,27.1z"/>
		<g id="Слой_1_17_">
			
				<linearGradient id="SVGID_18_" gradientUnits="userSpaceOnUse" x1="110.5894" y1="-56.7555" x2="117.7142" y2="-56.7555" gradientTransform="matrix(0.9325 0.3612 -0.3612 0.9325 1.6797 32.1946)">
				<stop  offset="0" style="stop-color:#163C94"/>
				<stop  offset="1" style="stop-color:#163C94"/>
			</linearGradient>
			<path class="st20" d="M129.8,27.2l-6.6-2.6l4.6-9.8c0.2-0.4,0.5-0.6,0.8-0.5l4.2,1.6c0.3,0.1,0.4,0.5,0.2,1L129.8,27.2z"/>
		</g>
	</g>
	<g>
		<circle class="st1" cx="111" cy="66.1" r="45.4"/>
		<linearGradient id="SVGID_19_" gradientUnits="userSpaceOnUse" x1="65.6474" y1="65.9863" x2="156.2545" y2="65.9863">
			<stop  offset="0" style="stop-color:#163C94"/>
			<stop  offset="1" style="stop-color:#163C94"/>
		</linearGradient>
		<circle class="st21" cx="111" cy="66" r="45.3"/>
	</g>
</g>
<path class="st0" d="M150.9,124.7H72.4V65.5c0-21.7,17.6-39.2,39.2-39.2h0c21.7,0,39.2,17.6,39.2,39.2V124.7z"/>
<g>
	<g>
		<path class="st22" d="M110.9,50c-0.9-0.1-1.9-0.3-2.7-0.8c-1.6-0.9-2.5-3.1-3-4.8c-0.1-0.3-0.2-0.6-0.3-0.9
			c-1-3.7-1.6-7.6-1.8-11.5c5.2-1.1,10.7-1.1,15.9,0c-0.2,3.5-0.8,6.9-1.6,10.3c-0.3,1.4-0.6,2.8-1.2,4s-1.4,2.4-2.6,3.1
			C112.8,49.8,111.9,50,110.9,50z"/>
		<g>
			<path class="st23" d="M118.5,31.8c-0.2,3.4-0.8,6.8-1.5,10.1c-0.3,1.4-0.6,2.7-1.1,4c-0.5,1.2-1.3,2.4-2.4,3
				c-0.8,0.5-1.7,0.7-2.6,0.6c-0.9-0.1-1.8-0.3-2.5-0.8c-1.5-0.9-2.3-3-2.8-4.7c-0.1-0.3-0.2-0.6-0.3-0.9c-0.9-3.6-1.5-7.3-1.7-11.1
				c0-0.1,0-0.2,0-0.2"/>
			<path class="st23" d="M118.2,31.7c-0.2,3.4-0.8,6.7-1.4,9.9c-0.3,1.3-0.6,2.7-1.1,3.9c-0.5,1.2-1.3,2.3-2.3,3
				c-0.8,0.5-1.6,0.7-2.5,0.6c-0.8-0.1-1.7-0.3-2.4-0.8c-1.4-0.9-2.2-2.9-2.7-4.7c-0.1-0.3-0.2-0.6-0.2-0.9
				c-0.9-3.6-1.4-7.4-1.6-11.1"/>
			<path class="st23" d="M103.9,32.3c4.7-0.8,9.6-0.8,14.3,0"/>
			<path class="st23" d="M104,32.9c4.7-0.8,9.5-0.8,14.2,0"/>
			<line class="st23" x1="103.7" y1="32.3" x2="103.1" y2="32.4"/>
			<line class="st23" x1="103.7" y1="32.9" x2="103.2" y2="33"/>
			<line class="st23" x1="118.5" y1="32.4" x2="119" y2="32.5"/>
		</g>
		<line class="st23" x1="118.4" y1="32.9" x2="119" y2="33"/>
	</g>
	<g>
		<path class="st22" d="M102.9,52.9c-0.8,0.5-1.7,0.8-2.7,0.9c-1.8,0.2-3.8-1-5.3-2.1c-0.3-0.2-0.5-0.4-0.8-0.6
			c-3-2.4-5.8-5.2-8.2-8.3c3.6-4,8-7.2,12.9-9.3c1.8,3,3.4,6.1,4.8,9.3c0.6,1.3,1.1,2.6,1.4,4c0.3,1.4,0.3,2.8-0.3,4
			C104.4,51.6,103.7,52.3,102.9,52.9z"/>
		<g>
			<path class="st23" d="M98.4,33.7c1.8,2.9,3.3,5.9,4.7,9c0.6,1.3,1.1,2.6,1.4,3.9c0.3,1.3,0.3,2.7-0.2,3.9c-0.4,0.9-1,1.6-1.7,2
				c-0.7,0.5-1.6,0.8-2.5,0.8c-1.7,0.2-3.6-1.1-5.1-2.2c-0.3-0.2-0.5-0.4-0.7-0.6c-2.9-2.4-5.5-5.1-7.8-8c-0.1-0.1-0.1-0.1-0.2-0.2"
				/>
			<path class="st23" d="M98.1,33.8c1.8,2.8,3.3,5.8,4.7,8.9c0.6,1.2,1.1,2.5,1.4,3.8c0.3,1.3,0.3,2.6-0.1,3.8
				c-0.3,0.8-0.9,1.5-1.6,2c-0.7,0.5-1.6,0.7-2.4,0.8c-1.6,0.1-3.5-1.1-4.9-2.2c-0.2-0.2-0.5-0.4-0.7-0.6c-2.9-2.4-5.5-5.1-7.8-8.1"
				/>
			<path class="st23" d="M86.9,42.7c3.3-3.4,7.2-6.3,11.6-8.4"/>
			<path class="st23" d="M87.3,43.1c3.3-3.4,7.2-6.3,11.5-8.3"/>
			<line class="st23" x1="86.7" y1="42.8" x2="86.3" y2="43.2"/>
			<line class="st23" x1="87.1" y1="43.3" x2="86.7" y2="43.7"/>
			<line class="st23" x1="98.7" y1="34.2" x2="99.2" y2="33.9"/>
		</g>
		<line class="st23" x1="99" y1="34.7" x2="99.5" y2="34.4"/>
	</g>
	<g>
		<path class="st22" d="M98.2,59.9c-0.3,0.9-0.9,1.7-1.6,2.3c-1.3,1.2-3.7,1.4-5.5,1.4c-0.3,0-0.6,0-1,0c-3.9-0.2-7.8-0.8-11.5-1.9
			c0.5-5.3,2.2-10.5,5-15.1c3.2,1.3,6.3,2.9,9.3,4.7c1.2,0.7,2.4,1.5,3.5,2.4s1.8,2.1,2.1,3.4C98.6,58,98.5,59,98.2,59.9z"/>
		<g>
			<path class="st23" d="M83.2,47c3.2,1.3,6.2,2.8,9.1,4.5c1.2,0.7,2.4,1.4,3.4,2.3c1,0.9,1.8,2,2.1,3.2c0.2,0.9,0.1,1.8-0.2,2.7
				c-0.3,0.8-0.9,1.6-1.5,2.2c-1.3,1.1-3.6,1.3-5.4,1.2c-0.3,0-0.6,0-0.9,0c-3.7-0.2-7.4-0.9-11-1.8c-0.1,0-0.2,0-0.2-0.1"/>
			<path class="st23" d="M83.1,47.3c3.1,1.2,6.1,2.8,9,4.4c1.2,0.7,2.4,1.4,3.4,2.3c1,0.9,1.8,2,2.1,3.1c0.2,0.9,0.1,1.8-0.2,2.6
				c-0.3,0.8-0.8,1.5-1.5,2.1c-1.3,1.1-3.5,1.2-5.3,1.1c-0.3,0-0.6,0-0.9,0c-3.7-0.2-7.4-0.9-11.1-1.9"/>
			<path class="st23" d="M79.2,61.1c0.7-4.7,2.2-9.4,4.4-13.6"/>
			<path class="st23" d="M79.8,61.2c0.7-4.7,2.2-9.3,4.4-13.5"/>
			<line class="st23" x1="79.2" y1="61.3" x2="79.1" y2="61.8"/>
			<line class="st23" x1="79.7" y1="61.4" x2="79.6" y2="62"/>
			<line class="st23" x1="83.8" y1="47.3" x2="84" y2="46.8"/>
		</g>
		<line class="st23" x1="84.3" y1="47.5" x2="84.6" y2="47"/>
	</g>
	<g>
		<path class="st22" d="M98.5,68.4c0.2,0.9,0.3,1.9,0.1,2.8c-0.4,1.8-2.1,3.3-3.7,4.4c-0.3,0.2-0.5,0.4-0.8,0.5
			c-3.2,2.1-6.8,3.9-10.4,5.3c-2.7-4.6-4.4-9.8-4.9-15.2c3.4-0.8,6.8-1.3,10.3-1.7c1.4-0.1,2.8-0.3,4.2-0.1s2.7,0.6,3.7,1.5
			C97.7,66.6,98.2,67.4,98.5,68.4z"/>
		<g>
			<path class="st23" d="M78.8,66.7c3.3-0.8,6.7-1.3,10.1-1.7c1.4-0.2,2.8-0.3,4.1-0.1c1.3,0.1,2.7,0.5,3.6,1.3
				c0.7,0.6,1.2,1.4,1.4,2.3c0.2,0.9,0.2,1.8,0,2.7c-0.4,1.7-2.1,3.1-3.6,4.1c-0.3,0.2-0.5,0.4-0.8,0.5c-3.1,2-6.5,3.7-10,5
				c-0.1,0-0.2,0.1-0.2,0.1"/>
			<path class="st23" d="M78.8,67c3.3-0.8,6.6-1.3,9.9-1.7c1.4-0.2,2.7-0.3,4-0.2c1.3,0.1,2.6,0.5,3.5,1.3c0.7,0.6,1.1,1.3,1.4,2.2
				c0.2,0.8,0.2,1.7,0,2.6c-0.4,1.6-2.1,3-3.6,4c-0.3,0.2-0.5,0.3-0.8,0.5c-3.1,2-6.6,3.6-10.1,5"/>
			<path class="st23" d="M83.8,80.5c-2.2-4.2-3.7-8.8-4.4-13.6"/>
			<path class="st23" d="M84.3,80.2c-2.2-4.2-3.7-8.8-4.4-13.5"/>
			<line class="st23" x1="83.9" y1="80.7" x2="84.2" y2="81.2"/>
			<line class="st23" x1="84.4" y1="80.5" x2="84.7" y2="81"/>
			<line class="st23" x1="79.4" y1="66.6" x2="79.3" y2="66.1"/>
		</g>
		<line class="st23" x1="79.9" y1="66.5" x2="79.9" y2="65.9"/>
	</g>
	<g>
		<path class="st22" d="M103.7,75.1c0.7,0.6,1.3,1.4,1.7,2.3c0.8,1.6,0.2,3.9-0.4,5.7c-0.1,0.3-0.2,0.6-0.3,0.9
			c-1.4,3.6-3.2,7.1-5.3,10.4c-4.9-2.2-9.3-5.4-12.9-9.4c2.2-2.7,4.8-5.1,7.3-7.4c1.1-0.9,2.1-1.9,3.4-2.6c1.2-0.7,2.6-1.1,3.9-1
			C102,74,102.9,74.5,103.7,75.1z"/>
		<g>
			<path class="st23" d="M86.8,85.3c2.2-2.6,4.6-5,7.1-7.3c1-0.9,2.1-1.9,3.3-2.5c1.2-0.7,2.5-1.1,3.7-1c0.9,0.1,1.8,0.4,2.5,1
				c0.7,0.6,1.2,1.3,1.6,2.1c0.7,1.6,0.1,3.8-0.5,5.5c-0.1,0.3-0.2,0.6-0.3,0.9c-1.3,3.5-3.1,6.8-5.2,9.9c0,0.1-0.1,0.1-0.1,0.2"/>
			<path class="st23" d="M87,85.5c2.2-2.6,4.5-4.9,7-7.2c1-0.9,2-1.8,3.2-2.5c1.1-0.7,2.4-1.1,3.6-1.1c0.9,0.1,1.7,0.4,2.4,1
				c0.7,0.5,1.2,1.3,1.5,2.1c0.6,1.5,0.1,3.7-0.5,5.4c-0.1,0.3-0.2,0.6-0.3,0.9c-1.4,3.5-3.2,6.8-5.2,10"/>
			<path class="st23" d="M98.9,93.5c-4.3-2.1-8.2-4.9-11.5-8.4"/>
			<path class="st23" d="M99.2,93c-4.3-2.1-8.2-4.9-11.5-8.4"/>
			<line class="st23" x1="99.1" y1="93.6" x2="99.6" y2="93.8"/>
			<line class="st23" x1="99.4" y1="93.1" x2="99.9" y2="93.3"/>
			<line class="st23" x1="87.2" y1="84.9" x2="86.8" y2="84.5"/>
		</g>
		<line class="st23" x1="87.6" y1="84.4" x2="87.2" y2="84"/>
	</g>
	<g>
		<path class="st22" d="M111.8,77.4c0.9,0.1,1.9,0.3,2.7,0.8c1.6,0.9,2.5,3.1,3,4.8c0.1,0.3,0.2,0.6,0.3,0.9c1,3.7,1.6,7.6,1.8,11.5
			c-5.2,1.1-10.7,1.1-15.9,0c0.2-3.5,0.8-6.9,1.6-10.3c0.3-1.4,0.6-2.8,1.2-4c0.6-1.3,1.4-2.4,2.6-3.1
			C109.9,77.5,110.9,77.4,111.8,77.4z"/>
		<g>
			<path class="st23" d="M104.2,95.6c0.2-3.4,0.8-6.8,1.5-10.1c0.3-1.4,0.6-2.7,1.1-4s1.3-2.4,2.4-3c0.8-0.5,1.7-0.7,2.6-0.6
				c0.9,0.1,1.8,0.3,2.5,0.8c1.5,0.9,2.3,3,2.8,4.7c0.1,0.3,0.2,0.6,0.3,0.9c0.9,3.6,1.5,7.3,1.7,11.1c0,0.1,0,0.2,0,0.2"/>
			<path class="st23" d="M104.5,95.7c0.2-3.4,0.8-6.7,1.4-9.9c0.3-1.3,0.6-2.7,1.1-3.9c0.5-1.2,1.3-2.3,2.3-3
				c0.8-0.5,1.6-0.7,2.5-0.6c0.8,0.1,1.7,0.3,2.4,0.8c1.4,0.9,2.2,2.9,2.7,4.7c0.1,0.3,0.2,0.6,0.2,0.9c0.9,3.6,1.4,7.4,1.6,11.1"/>
			<path class="st23" d="M118.8,95.1c-4.7,0.8-9.6,0.8-14.3,0"/>
			<path class="st23" d="M118.8,94.5c-4.7,0.8-9.5,0.8-14.2,0"/>
			<line class="st23" x1="119" y1="95" x2="119.6" y2="94.9"/>
			<line class="st23" x1="119" y1="94.5" x2="119.5" y2="94.4"/>
			<line class="st23" x1="104.3" y1="95" x2="103.7" y2="94.9"/>
		</g>
		<line class="st23" x1="104.3" y1="94.4" x2="103.8" y2="94.3"/>
	</g>
	<g>
		<path class="st22" d="M119.8,74.5c0.8-0.5,1.7-0.8,2.7-0.9c1.8-0.2,3.8,1,5.3,2.1c0.3,0.2,0.5,0.4,0.8,0.6c3,2.4,5.8,5.2,8.2,8.3
			c-3.6,4-8,7.2-12.9,9.3c-1.8-3-3.4-6.1-4.8-9.3c-0.6-1.3-1.1-2.6-1.4-4s-0.3-2.8,0.3-4C118.3,75.8,119,75,119.8,74.5z"/>
		<g>
			<path class="st23" d="M124.3,93.7c-1.8-2.9-3.3-5.9-4.7-9c-0.6-1.3-1.1-2.6-1.4-3.9c-0.3-1.3-0.3-2.7,0.2-3.9
				c0.4-0.9,1-1.6,1.7-2c0.7-0.5,1.6-0.8,2.5-0.8c1.7-0.2,3.6,1.1,5.1,2.2c0.3,0.2,0.5,0.4,0.7,0.6c2.9,2.4,5.5,5.1,7.8,8
				c0.1,0.1,0.1,0.1,0.2,0.2"/>
			<path class="st23" d="M124.6,93.6c-1.8-2.8-3.3-5.8-4.7-8.9c-0.6-1.2-1.1-2.5-1.4-3.8c-0.3-1.3-0.3-2.6,0.1-3.8
				c0.3-0.8,0.9-1.5,1.6-2c0.7-0.5,1.6-0.7,2.4-0.8c1.6-0.1,3.5,1.1,4.9,2.2c0.2,0.2,0.5,0.4,0.7,0.6c2.9,2.4,5.5,5.1,7.8,8.1"/>
			<path class="st23" d="M135.8,84.7c-3.3,3.4-7.2,6.3-11.6,8.4"/>
			<path class="st23" d="M135.5,84.3c-3.3,3.4-7.2,6.3-11.5,8.3"/>
			<line class="st23" x1="136" y1="84.5" x2="136.4" y2="84.1"/>
			<line class="st23" x1="135.6" y1="84.1" x2="136" y2="83.7"/>
			<line class="st23" x1="124" y1="93.2" x2="123.5" y2="93.4"/>
		</g>
		<line class="st23" x1="123.7" y1="92.7" x2="123.2" y2="92.9"/>
	</g>
	<g>
		<path class="st22" d="M124.5,67.5c0.3-0.9,0.9-1.7,1.6-2.3c1.3-1.2,3.7-1.4,5.5-1.4c0.3,0,0.6,0,1,0c3.9,0.2,7.8,0.8,11.5,1.9
			c-0.5,5.3-2.2,10.5-5,15.1c-3.2-1.3-6.3-2.9-9.3-4.7c-1.2-0.7-2.4-1.5-3.5-2.4s-1.8-2.1-2.1-3.4C124.1,69.4,124.2,68.4,124.5,67.5
			z"/>
		<g>
			<path class="st23" d="M139.5,80.3c-3.2-1.3-6.2-2.8-9.1-4.5c-1.2-0.7-2.4-1.4-3.4-2.3c-1-0.9-1.8-2-2.1-3.2
				c-0.2-0.9-0.1-1.8,0.2-2.7c0.3-0.8,0.9-1.6,1.5-2.2c1.3-1.1,3.6-1.3,5.4-1.2c0.3,0,0.6,0,0.9,0c3.7,0.2,7.4,0.9,11,1.8
				c0.1,0,0.2,0,0.2,0.1"/>
			<path class="st23" d="M139.6,80.1c-3.1-1.2-6.1-2.8-9-4.4c-1.2-0.7-2.4-1.4-3.4-2.3s-1.8-2-2.1-3.1c-0.2-0.9-0.1-1.8,0.2-2.6
				c0.3-0.8,0.8-1.5,1.5-2.1c1.3-1.1,3.5-1.2,5.3-1.1c0.3,0,0.6,0,0.9,0c3.7,0.2,7.4,0.9,11.1,1.9"/>
			<path class="st23" d="M143.5,66.3c-0.7,4.7-2.2,9.4-4.4,13.6"/>
			<path class="st23" d="M143,66.2c-0.7,4.7-2.2,9.3-4.4,13.5"/>
			<line class="st23" x1="143.5" y1="66.1" x2="143.6" y2="65.5"/>
			<line class="st23" x1="143" y1="65.9" x2="143.1" y2="65.4"/>
			<line class="st23" x1="139" y1="80.1" x2="138.7" y2="80.6"/>
		</g>
		<line class="st23" x1="138.4" y1="79.9" x2="138.2" y2="80.4"/>
	</g>
	<g>
		<path class="st22" d="M124.3,59c-0.2-0.9-0.3-1.9-0.1-2.8c0.4-1.8,2.1-3.3,3.7-4.4c0.3-0.2,0.5-0.4,0.8-0.5
			c3.2-2.1,6.8-3.9,10.4-5.3c2.7,4.6,4.4,9.8,4.9,15.2c-3.4,0.8-6.8,1.3-10.3,1.7c-1.4,0.1-2.8,0.3-4.2,0.1
			c-1.4-0.2-2.7-0.6-3.7-1.5C125,60.8,124.5,59.9,124.3,59z"/>
		<g>
			<path class="st23" d="M143.9,60.6c-3.3,0.8-6.7,1.3-10.1,1.7c-1.4,0.2-2.8,0.3-4.1,0.1s-2.7-0.5-3.6-1.3
				c-0.7-0.6-1.2-1.4-1.4-2.3c-0.2-0.9-0.2-1.8,0-2.7c0.4-1.7,2.1-3.1,3.6-4.1c0.3-0.2,0.5-0.4,0.8-0.5c3.1-2,6.5-3.7,10-5
				c0.1,0,0.2-0.1,0.2-0.1"/>
			<path class="st23" d="M143.9,60.3c-3.3,0.8-6.6,1.3-9.9,1.7c-1.4,0.2-2.7,0.3-4,0.2c-1.3-0.1-2.6-0.5-3.5-1.3
				c-0.7-0.6-1.1-1.3-1.4-2.2c-0.2-0.8-0.2-1.7,0-2.6c0.4-1.6,2.1-3,3.6-4c0.3-0.2,0.5-0.3,0.8-0.5c3.1-2,6.6-3.6,10.1-5"/>
			<path class="st23" d="M138.9,46.9c2.2,4.2,3.7,8.8,4.4,13.6"/>
			<path class="st23" d="M138.4,47.1c2.2,4.2,3.7,8.8,4.4,13.5"/>
			<line class="st23" x1="138.8" y1="46.7" x2="138.5" y2="46.2"/>
			<line class="st23" x1="138.3" y1="46.9" x2="138" y2="46.4"/>
			<line class="st23" x1="143.3" y1="60.8" x2="143.4" y2="61.3"/>
		</g>
		<line class="st23" x1="142.8" y1="60.9" x2="142.9" y2="61.4"/>
	</g>
	<g>
		<path class="st22" d="M119.1,52.3c-0.7-0.6-1.3-1.4-1.7-2.3c-0.8-1.6-0.2-3.9,0.4-5.7c0.1-0.3,0.2-0.6,0.3-0.9
			c1.4-3.6,3.2-7.1,5.3-10.4c4.9,2.2,9.3,5.4,12.9,9.4c-2.2,2.7-4.8,5.1-7.3,7.4c-1.1,0.9-2.1,1.9-3.4,2.6c-1.2,0.7-2.6,1.1-3.9,1
			C120.7,53.3,119.8,52.9,119.1,52.3z"/>
		<g>
			<path class="st23" d="M135.9,42.1c-2.2,2.6-4.6,5-7.1,7.3c-1,0.9-2.1,1.9-3.3,2.5c-1.2,0.7-2.5,1.1-3.7,1c-0.9-0.1-1.8-0.4-2.5-1
				c-0.7-0.6-1.2-1.3-1.6-2.1c-0.7-1.6-0.1-3.8,0.5-5.5c0.1-0.3,0.2-0.6,0.3-0.9c1.3-3.5,3.1-6.8,5.2-9.9c0-0.1,0.1-0.1,0.1-0.2"/>
			<path class="st23" d="M135.7,41.9c-2.2,2.6-4.5,4.9-7,7.2c-1,0.9-2,1.8-3.2,2.5c-1.1,0.7-2.4,1.1-3.6,1.1c-0.9-0.1-1.7-0.4-2.4-1
				c-0.7-0.5-1.2-1.3-1.5-2.1c-0.6-1.5-0.1-3.7,0.5-5.4c0.1-0.3,0.2-0.6,0.3-0.9c1.4-3.5,3.2-6.8,5.2-10"/>
			<path class="st23" d="M123.8,33.9c4.3,2.1,8.2,4.9,11.5,8.4"/>
			<path class="st23" d="M123.5,34.4c4.3,2.1,8.2,4.9,11.5,8.4"/>
			<line class="st23" x1="123.6" y1="33.8" x2="123.1" y2="33.6"/>
			<line class="st23" x1="123.3" y1="34.3" x2="122.8" y2="34"/>
			<line class="st23" x1="135.5" y1="42.5" x2="135.9" y2="42.9"/>
		</g>
		<line class="st23" x1="135.1" y1="43" x2="135.5" y2="43.4"/>
	</g>
</g>
<path class="st0" d="M131.9,110.1H91.3c-6.9,0-12.6-5.6-12.6-12.6V66.8c0-6.9,5.6-12.6,12.6-12.6h40.6c6.9,0,12.6,5.6,12.6,12.6
	v30.7C144.5,104.4,138.9,110.1,131.9,110.1z"/>
<linearGradient id="SVGID_20_" gradientUnits="userSpaceOnUse" x1="19.1124" y1="69.7257" x2="205.3413" y2="69.7257" gradientTransform="matrix(1 0 0 -1 0 202)">
	<stop  offset="0" style="stop-color:#163C94"/>
	<stop  offset="1" style="stop-color:#163C94"/>
</linearGradient>
<path class="st24" d="M197.2,136.1l-71.1-3.3c-0.3,0-0.7,0-1,0c-2-0.5-3.9-1.2-4.8,1.6c-0.1,0.3-0.8,0.4-1.3,0.5
	c-3.5,0.3-7,0.8-10.5,0.8c-1.8,0-3.5-0.8-5.3-1.2c-0.9-0.2-1.9-0.4-2.8-0.4c-13,0.4-26.1,0.9-39.2,1.4s-25.8,1.2-38.7,1.8
	c-1.5,0.1-3,0.2-3.4-1.8c-0.2-1.3,0.1-2,1.7-2.1c12.4-0.5,24.7-1.1,37.1-1.7c14.8-0.8,29.7-1.6,44.5-2.5c1.6-0.3,3.2,0.8,3.5,2.4
	c0.6,2.1,1.8,2.3,3.3,1.2c2.8-1.9,6.4-2.4,9.7-1.4c1,0,1.8-0.5,2.3-1.4c1.2-2.8,3.4-3,6.1-2.8c25.1,1.9,50.2,3.8,75.3,5.7
	c0.7,0,1.5,0.2,2.1,0.7c0.5,0.6,0.8,1.4,0.8,2.2c0,0.4-1,0.9-1.5,0.9c-1.9-0.1-3.4-0.5-5.6-0.5L197.2,136.1z"/>
<linearGradient id="SVGID_21_" gradientUnits="userSpaceOnUse" x1="22.8" y1="79.8117" x2="112.15" y2="79.8117" gradientTransform="matrix(1 0 0 -1 0 202)">
	<stop  offset="0" style="stop-color:#163C94"/>
	<stop  offset="1" style="stop-color:#163C94"/>
</linearGradient>
<path class="st25" d="M112.2,127.2l-5.3,2.9c-2.1-2.2-5-2.2-7.7-2.2c-10.4,0.1-20.8,0.3-31.1,0.5c-12.4,0.3-24.9,0.7-37.3,1
	c-2.7,0.1-5.3,0-7.9,0c1.7-1.3,3.3-2.5,4.9-3.7c1.8-1.7,4.1-2.8,6.5-3.4c8.5-1.7,16.8-4,25.3-5.7c10.8-2.1,21.8-3.2,32.8-1.9
	c5.5,0.6,10.8,2.2,15.2,5.7C109.8,122.2,111.4,124.5,112.2,127.2z M37,127.7v0.8c6-0.4,12-0.7,18-1.2c15.8-1.4,31.5-3.5,47.4-0.8
	c-0.4-0.3-1-0.6-1.5-0.7c-8.7-2.2-17.5-3.6-26.5-2.6C61.9,124.5,49.4,126.2,37,127.7L37,127.7z M95.1,120.3
	c-10.1-3-20.3-1.9-30.6-0.4C74.7,119.2,84.8,118.4,95.1,120.3z M73.7,117.2c4.4,0.3,9.8,0.1,15.1,1s10.2,2.8,14.9,4.1
	C94.4,116.9,83.8,116.2,73.7,117.2z M78.5,120.3v0.2l16.5,1.3v-0.5L78.5,120.3z"/>
<linearGradient id="SVGID_22_" gradientUnits="userSpaceOnUse" x1="113.01" y1="81.1324" x2="196.08" y2="81.1324" gradientTransform="matrix(1 0 0 -1 0 202)">
	<stop  offset="0" style="stop-color:#163C94"/>
	<stop  offset="1" style="stop-color:#163C94"/>
</linearGradient>
<path class="st26" d="M196,128.1c-1.5,0.1-3.1,0.1-4.6,0c-9.1-1-18.3-2.1-27.4-3.3c-12.6-1.6-25.2-2.5-37.7,0.7
	c-2.5,0.6-4.7,2-7.1,3c-0.6,0.2-1.2,0.2-1.8,0c-1.4-0.5-2.7-1.1-4.3-1.8c0.7-3.3,2.6-6.2,5.2-8.2c4.7-3.8,10.3-5.1,16.2-5.3
	c10.5-0.5,20.7,1.4,30.8,3.9c7.4,1.8,14.7,3.9,22.1,5.7c2.1,0.5,4.1,1.4,5.8,2.7c1,0.8,2,1.4,3,2.1L196,128.1z M118.3,122.8l0.3,0.4
	c1.8-0.9,3.6-1.9,5.5-2.7c5.8-2.2,12.1-2.9,18.3-2.2c8.7,0.8,17.4,2.1,26.1,3.3c4.6,0.7,9.3,1.7,13.9,2.5
	c-13.9-4.1-27.9-7.5-42.4-7.7c-5.7-0.2-11.3,0.8-16.5,3.2C121.6,120.6,119.9,121.6,118.3,122.8L118.3,122.8z M157,122.7
	c-11.5-2.2-20.7-2.7-23.9-1.7L157,122.7z M144.6,119.3v-0.2l-15.1,0.6v0.4L144.6,119.3z"/>
<linearGradient id="SVGID_23_" gradientUnits="userSpaceOnUse" x1="129.3031" y1="140.3092" x2="134.1031" y2="140.3092" gradientTransform="matrix(1 0 0 -1 0 202)">
	<stop  offset="0" style="stop-color:#163C94"/>
	<stop  offset="1" style="stop-color:#163C94"/>
</linearGradient>
<path class="st27" d="M134.1,65.3h-4.7c-0.1-1.9-0.1-3.8,0.1-5.7c0.1-0.6,1.4-1.3,2.2-1.4c1-0.3,2,0.3,2.3,1.2
	c0.1,0.2,0.1,0.4,0.1,0.6C134.2,61.7,134.1,63.4,134.1,65.3z"/>
<path class="st0" d="M150.1,141c-1,0.7-1.6,1.4-2.2,1.4c-0.4,0-1.3-1.1-1.2-1.4c0.3-0.7,0.8-1.3,1.6-1.5
	C148.6,139.3,149.2,140.2,150.1,141z"/>
<path class="st0" d="M133.6,143c-0.6-1.1-1.3-1.7-1.3-2.4c-0.1-0.4,0.9-1.2,1.2-1.2c0.6,0.2,1.4,0.8,1.4,1.3S134.3,142,133.6,143z"
	/>
<path class="st0" d="M59,138.6c0.8,1.1,1.5,1.6,1.5,2.2s-0.7,1.1-1.2,1.7c-0.5-0.4-1.2-0.8-1.3-1.2C58.1,140.6,58.5,139.9,59,138.6z
	"/>
<path class="st0" d="M84.1,140.9c-0.9,0.7-1.6,1.5-2,1.4c-0.6-0.3-1.1-0.8-1.3-1.5c-0.1-0.4,0.8-1.3,1.2-1.3S83.1,140.2,84.1,140.9z
	"/>
<path class="st0" d="M102.7,143.1c-0.6-1.1-1.2-1.6-1.2-2.2s0.7-1,1-1.5c0.5,0.5,1.3,0.9,1.3,1.5S103.3,142,102.7,143.1z"/>
<path class="st0" d="M156.3,140.8l-2,1.6c-0.5-0.5-0.9-1.1-1.2-1.7c-0.1-0.3,0.8-1.2,1.1-1.1C154.8,139.6,155.3,140.2,156.3,140.8z"
	/>
<path class="st0" d="M128.4,140.9l-1.6,1.7c-0.4-0.5-1.1-1-1.1-1.5s0.7-1.1,1.1-1.6L128.4,140.9z"/>
<path class="st0" d="M65.6,138.7c0.5,1.2,1,1.8,0.8,2.3s-0.8,1-1.3,1.5c-0.3-0.6-0.8-1.1-0.8-1.7S64.9,139.8,65.6,138.7z"/>
<path class="st0" d="M37,127.7c12.5-1.5,24.9-3.2,37.4-4.6c9-1,17.8,0.5,26.5,2.6c0.5,0.2,1,0.4,1.5,0.7
	c-15.8-2.7-31.6-0.6-47.4,0.8c-6,0.5-12,0.8-18,1.2L37,127.7z"/>
<path class="st0" d="M78.5,120.3l16.5,1v0.5l-16.6-1.3L78.5,120.3z"/>
<path class="st0" d="M157,122.7l-23.9-1.7C136.3,120,145.4,120.5,157,122.7z"/>
<path class="st0" d="M144.5,119.3l-15.1,0.9v-0.4l15.1-0.6V119.3z"/>
<text transform="matrix(-0.4211 -0.8022 0.8924 -0.4512 62.1803 96.5604)" class="st22 st28 st29">К</text>
<text transform="matrix(-0.3409 -0.8423 0.9326 -0.361 59.4198 91.3204)" class="st22 st28 st30">О</text>
<text transform="matrix(-0.2582 -0.8641 0.9634 -0.2682 57.1996 85.9394)" class="st22 st28 st31">Л</text>
<text transform="matrix(-0.1689 -0.8845 0.9839 -0.1789 55.4506 79.9089)" class="st22 st28 st32">Е</text>
<text transform="matrix(-7.974522e-02 -0.8971 0.9968 -7.974522e-02 54.4205 74.6501)" class="st22 st28 st33">Д</text>
<text transform="matrix(3.955552e-02 -0.89 0.9988 4.944440e-02 53.7709 68.2405)" class="st22 st28 st34">Ж</text>
<text transform="matrix(0.1779 -0.8695 0.9782 0.2075 54.539 57.3795)" class="st22 st28 st35">Т</text>
<text transform="matrix(0.2684 -0.8551 0.9545 0.2983 55.6907 51.8304)" class="st22 st28 st36">Р</text>
<text transform="matrix(0.3397 -0.8392 0.9292 0.3697 56.9502 47.5796)" class="st22 st28 st37">А</text>
<text transform="matrix(0.4272 -0.7849 0.8843 0.467 59.1796 42.0096)" class="st22 st28 st38">Н</text>
<text transform="matrix(0.5094 -0.7391 0.829 0.5593 62.3298 36.2391)" class="st22 st28 st39">С</text>
<text transform="matrix(0.5855 -0.6847 0.7641 0.6451 65.3697 31.7497)" class="st22 st28 st40">П</text>
<text transform="matrix(0.667 -0.6172 0.6869 0.7267 69.6805 26.7707)" class="st22 st28 st41">О</text>
<text transform="matrix(0.7314 -0.551 0.6112 0.7915 74.0399 22.7393)" class="st22 st28 st42">Р</text>
<text transform="matrix(0.7787 -0.4692 0.5291 0.8486 78.3901 19.4599)" class="st22 st28 st43">Т</text>
<text transform="matrix(0.8185 -0.3893 0.4392 0.8984 83.2302 16.5095)" class="st22 st28 st44">У</text>
<text transform="matrix(0.8706 -0.2802 0.3102 0.9507 90.3997 13.24)" class="st22 st28 st45">Т</text>
<text transform="matrix(0.8948 -0.2011 0.2212 0.9752 95.08 11.7003)" class="st22 st28 st46">А</text>
<text transform="matrix(0.9162 -7.047734e-02 8.054553e-02 0.9968 103.0697 10.0904)" class="st22 st28 st47">К</text>
<text transform="matrix(0.919 3.029685e-02 -2.019790e-02 0.9998 109.0096 9.6495)" class="st22 st28 st48">О</text>
<text transform="matrix(0.9192 0.1313 -0.1414 0.9899 114.9701 9.7501)" class="st22 st28 st49">М</text>
<text transform="matrix(0.8824 0.2507 -0.2707 0.9627 122.9257 10.9531)" class="st22 st28 st30">П</text>
<text transform="matrix(0.8685 0.3131 -0.3434 0.9392 129.3298 12.8299)" class="st22 st28 st48">’</text>
<text transform="matrix(0.8357 0.3826 -0.4229 0.9062 131.1603 13.3399)" class="st22 st28 st50">Ю</text>
<text transform="matrix(0.7828 0.4717 -0.5219 0.853 138.5301 16.7495)" class="st22 st28 st51">Т</text>
<text transform="matrix(0.74 0.54 -0.6 0.8 143.4306 19.6899)" class="st22 st28 st52">Е</text>
<text transform="matrix(0.6812 0.6011 -0.6712 0.7413 147.8105 22.89)" class="st22 st28 st53">Р</text>
<text transform="matrix(0.6211 0.6712 -0.7413 0.6712 151.9305 26.4695)" class="st22 st28 st53">Н</text>
<text transform="matrix(0.5009 0.8305 -0.7514 0.6598 157.0208 31.276)" class="st22 st28 st54">И</text>
<text transform="matrix(0.4701 0.7801 -0.8601 0.5101 160.3497 36.6704)" class="st22 st28 st55">Х</text>
<text transform="matrix(0.3583 0.8262 -0.9257 0.3782 164.3705 43.6101)" class="st22 st28 st56">Т</text>
<text transform="matrix(0.2784 0.8551 -0.9545 0.2983 166.6103 48.8099)" class="st22 st28 st36">Е</text>
<text transform="matrix(0.1996 0.878 -0.9778 0.2095 168.3002 53.9305)" class="st22 st28 st57">Х</text>
<text transform="matrix(9.950371e-02 0.8955 -0.995 9.950372e-02 169.5999 59.6605)" class="st22 st28 st58">Н</text>
<text transform="matrix(9.900990e-03 0.8911 -1 0 170.3393 66.2098)" class="st22 st28 st59">О</text>
<text transform="matrix(-8.955335e-02 0.8955 -0.995 -9.950372e-02 170.4016 72.0102)" class="st22 st28 st58">Л</text>
<text transform="matrix(-0.1782 0.8713 -0.9802 -0.198 169.7904 78.24)" class="st22 st28 st59">О</text>
<text transform="matrix(-0.2593 0.8576 -0.9573 -0.2892 168.5799 84.0596)" class="st22 st28 st60">Г</text>
<text transform="matrix(-0.3179 0.8345 -0.9339 -0.3576 167.0906 88.8404)" class="st22 st28 st61">І</text>
<text transform="matrix(-0.3875 0.8048 -0.9041 -0.4272 166.1311 91.5707)" class="st22 st28 st38">Й</text>
<linearGradient id="SVGID_24_" gradientUnits="userSpaceOnUse" x1="99.7659" y1="140.2771" x2="104.6103" y2="140.2771" gradientTransform="matrix(1 0 0 -1 0 202)">
	<stop  offset="0" style="stop-color:#163C94"/>
	<stop  offset="1" style="stop-color:#163C94"/>
</linearGradient>
<path class="st62" d="M104.6,65.3h-4.8c0-1.8-0.1-3.6,0-5.3c0.1-1.5,1.3-1.9,2.6-1.9s2.1,0.5,2.2,1.9L104.6,65.3z"/>
<linearGradient id="SVGID_25_" gradientUnits="userSpaceOnUse" x1="200.34" y1="531.74" x2="205.18" y2="531.74" gradientTransform="matrix(6.123234e-17 1 1 -6.123234e-17 -387.41 -127.27)">
	<stop  offset="0" style="stop-color:#163C94"/>
	<stop  offset="1" style="stop-color:#163C94"/>
</linearGradient>
<path class="st63" d="M140.7,77.9v-4.8c1.8,0,3.6-0.1,5.3,0c1.5,0.1,1.9,1.3,1.9,2.6s-0.4,2.1-1.9,2.1L140.7,77.9z"/>
<linearGradient id="SVGID_26_" gradientUnits="userSpaceOnUse" x1="220.07" y1="531.9271" x2="224.9144" y2="531.9271" gradientTransform="matrix(6.123234e-17 1 1 -6.123234e-17 -387.41 -127.27)">
	<stop  offset="0" style="stop-color:#163C94"/>
	<stop  offset="1" style="stop-color:#163C94"/>
</linearGradient>
<path class="st64" d="M140.9,97.6v-4.8c1.8,0,3.6-0.1,5.3,0c1.5,0.1,1.9,1.3,1.9,2.6s-0.4,2.1-1.9,2.1L140.9,97.6z"/>
<linearGradient id="SVGID_27_" gradientUnits="userSpaceOnUse" x1="229.51" y1="531.9271" x2="234.34" y2="531.9271" gradientTransform="matrix(6.123234e-17 1 1 -6.123234e-17 -387.41 -127.27)">
	<stop  offset="0" style="stop-color:#163C94"/>
	<stop  offset="1" style="stop-color:#163C94"/>
</linearGradient>
<path class="st65" d="M140.9,107.1v-4.8c1.8,0,3.6-0.1,5.3,0c1.5,0.1,1.9,1.3,1.9,2.6s-0.4,2.1-1.9,2.1L140.9,107.1z"/>
<text transform="matrix(1 0 0 1 105.42 108.35)" class="st22 st28 st66">КТ</text>
<text transform="matrix(1 0 0 1 90.66 90.78)" class="st22 st28 st66">КТ</text>
<text transform="matrix(1 0 0 1 23.26 143.02)" class="st22 st28 st67">ЧЕРНІГІВСЬ</text>
<text transform="matrix(1 0 0 1 54.22 143.02)" class="st22 st28 st67">К</text>
<text transform="matrix(1 0 0 1 57.77 143.02)" class="st22 st28 st67">О</text>
<text transform="matrix(1 0 0 1 61.36 143.02)" class="st22 st28 st67">Г</text>
<text transform="matrix(1 0 0 1 64.23 143.02)" class="st22 st28 st67">О НАЦІОН</text>
<text transform="matrix(1 0 0 1 90.08 143.02)" class="st22 st28 st67">А</text>
<text transform="matrix(1 0 0 1 93.77 143.02)" class="st22 st28 st67">ЛЬНО</text>
<text transform="matrix(1 0 0 1 108.5 143.02)" class="st22 st28 st67">Г</text>
<text transform="matrix(1 0 0 1 111.36 143.02)" class="st22 st28 st67">О ТЕХН</text>
<text transform="matrix(1 0 0 1 130.4 143.02)" class="st22 st28 st67">О</text>
<text transform="matrix(1 0 0 1 133.92 143.02)" class="st22 st28 st67">ЛОГ</text>
<text transform="matrix(1 0 0 1 144.33 143.02)" class="st22 st28 st67">І</text>
<text transform="matrix(1 0 0 1 146.03 143.02)" class="st22 st28 st67">ЧНО</text>
<text transform="matrix(1 0 0 1 157.45 143.02)" class="st22 st28 st67">Г</text>
<text transform="matrix(1 0 0 1 160.32 143.02)" class="st22 st28 st67">О УНІВЕРСИТ</text>
<text transform="matrix(1 0 0 1 194.97 143.02)" class="st22 st28 st67">Е</text>
<text transform="matrix(1 0 0 1 198.27 143.02)" class="st22 st28 st67">ТУ</text>
<text transform="matrix(1 0 0 1 37.42 157.89)" class="st22 st28 st68">КО</text>
<text transform="matrix(1 0 0 1 52.45 157.89)" class="st22 st28 st68">ЛЕДЖ Т</text>
<text transform="matrix(1 0 0 1 96.93 157.89)" class="st22 st28 st68 st69">Р</text>
<text transform="matrix(1 0 0 1 102.67 157.89)" class="st22 st28 st68">АНСПОРТУ </text>
<text transform="matrix(1 0 0 1 166.26 157.89)" class="st22 st28 st68">Т</text>
<text transform="matrix(1 0 0 1 172.57 157.89)" class="st22 st28 st68">А </text>
<text transform="matrix(1 0 0 1 25.45 170.85)" class="st22 st28 st68">К</text>
<text transform="matrix(1 0 0 1 33.01 170.85)" class="st22 st28 st68">ОМП’</text>
<text transform="matrix(1 0 0 1 61.74 170.85)" class="st22 st28 st68">Ю</text>
<text transform="matrix(1 0 0 1 72.02 170.85)" class="st22 st28 st68">ТЕРНИХ ТЕХН</text>
<text transform="matrix(1 0 0 1 150.47 170.85)" class="st22 st28 st68">О</text>
<text transform="matrix(1 0 0 1 157.94 170.85)" class="st22 st28 st68">ЛОГІЙ </text>
<text transform="matrix(1 0 0 1 17.7 183.8)" class="st22 st28 st68">ЧЕРНІГВСЬ</text>
<text transform="matrix(1 0 0 1 79.72 183.8)" class="st22 st28 st68">К</text>
<text transform="matrix(1 0 0 1 87.28 183.8)" class="st22 st28 st68">О</text>
<text transform="matrix(1 0 0 1 94.91 183.8)" class="st22 st28 st68">Г</text>
<text transform="matrix(1 0 0 1 101.01 183.8)" class="st22 st28 st68">О НАЦІ</text>
<text transform="matrix(1 0 0 1 139.86 183.8)" class="st22 st28 st68">О</text>
<text transform="matrix(1 0 0 1 147.18 183.8)" class="st22 st28 st68">А</text>
<text transform="matrix(1 0 0 1 155.02 183.8)" class="st22 st28 st68">ЛЬНО</text>
<text transform="matrix(1 0 0 1 186.31 183.8)" class="st22 st28 st68">Г</text>
<text transform="matrix(1 0 0 1 192.41 183.8)" class="st22 st28 st68">О </text>
<text transform="matrix(1 0 0 1 15.66 196.76)" class="st22 st28 st68">ТЕХН</text>
<text transform="matrix(1 0 0 1 45.84 196.76)" class="st22 st28 st68">О</text>
<text transform="matrix(1 0 0 1 53.31 196.76)" class="st22 st28 st68">ЛОГ</text>
<text transform="matrix(1 0 0 1 75.44 196.76)" class="st22 st28 st68">І</text>
<text transform="matrix(1 0 0 1 79.05 196.76)" class="st22 st28 st68">ЧНО</text>
<text transform="matrix(1 0 0 1 103.32 196.76)" class="st22 st28 st68">Г</text>
<text transform="matrix(1 0 0 1 109.41 196.76)" class="st22 st28 st68">О УНІВЕРСИТ</text>
<text transform="matrix(1 0 0 1 183.05 196.76)" class="st22 st28 st68">Е</text>
<text transform="matrix(1 0 0 1 190.05 196.76)" class="st22 st28 st68">ТУ</text>
<linearGradient id="SVGID_28_" gradientUnits="userSpaceOnUse" x1="75.7395" y1="104.7711" x2="82.9337" y2="104.7711">
	<stop  offset="0" style="stop-color:#163C94"/>
	<stop  offset="1" style="stop-color:#163C94"/>
</linearGradient>
<path class="st70" d="M81,102.4h-2h-1.4c-1,0-1.9,0.8-1.9,1.9v1c0,1,0.8,1.9,1.9,1.9h1.4h2h1.9v-1.9v-1v-1.9H81z"/>
<linearGradient id="SVGID_29_" gradientUnits="userSpaceOnUse" x1="75.7395" y1="95.0161" x2="82.9337" y2="95.0161">
	<stop  offset="0" style="stop-color:#163C94"/>
	<stop  offset="1" style="stop-color:#163C94"/>
</linearGradient>
<path class="st71" d="M81,92.6h-2h-1.4c-1,0-1.9,0.8-1.9,1.9v1c0,1,0.8,1.9,1.9,1.9h1.4h2h1.9v-1.9v-1v-1.9H81z"/>
<linearGradient id="SVGID_30_" gradientUnits="userSpaceOnUse" x1="75.7395" y1="85.4761" x2="82.9337" y2="85.4761">
	<stop  offset="0" style="stop-color:#163C94"/>
	<stop  offset="1" style="stop-color:#163C94"/>
</linearGradient>
<path class="st72" d="M81,83.1h-2h-1.4c-1,0-1.9,0.8-1.9,1.9v1c0,1,0.8,1.9,1.9,1.9h1.4h2h1.9V86v-1v-1.9H81z"/>
<linearGradient id="SVGID_31_" gradientUnits="userSpaceOnUse" x1="75.7395" y1="75.6261" x2="82.9337" y2="75.6261">
	<stop  offset="0" style="stop-color:#163C94"/>
	<stop  offset="1" style="stop-color:#163C94"/>
</linearGradient>
<path class="st73" d="M81,73.2h-2h-1.4c-1,0-1.9,0.8-1.9,1.9v1c0,1,0.8,1.9,1.9,1.9h1.4h2h1.9v-1.9v-1v-1.9H81z"/>
<linearGradient id="SVGID_32_" gradientUnits="userSpaceOnUse" x1="79.2111" y1="56.6608" x2="86.4053" y2="56.6608" gradientTransform="matrix(-4.684187e-07 1 -1 -4.684187e-07 147.994 -21.1252)">
	<stop  offset="0" style="stop-color:#163C94"/>
	<stop  offset="1" style="stop-color:#163C94"/>
</linearGradient>
<path class="st74" d="M93.7,63.4v-2V60c0-1-0.8-1.9-1.9-1.9h-1c-1,0-1.9,0.8-1.9,1.9v1.4v2l0,1.9h1.9h1h1.9L93.7,63.4z"/>
<linearGradient id="SVGID_33_" gradientUnits="userSpaceOnUse" x1="79.2511" y1="35.9833" x2="86.4452" y2="35.9833" gradientTransform="matrix(-4.684187e-07 1 -1 -4.684187e-07 147.994 -21.1252)">
	<stop  offset="0" style="stop-color:#163C94"/>
	<stop  offset="1" style="stop-color:#163C94"/>
</linearGradient>
<path class="st75" d="M114.4,63.4v-2l0-1.4c0-1-0.8-1.9-1.9-1.9h-1c-1,0-1.9,0.8-1.9,1.9l0,1.4v2v1.9h1.9h1l1.9,0V63.4z"/>
<linearGradient id="SVGID_34_" gradientUnits="userSpaceOnUse" x1="79.2111" y1="26.1395" x2="86.4053" y2="26.1395" gradientTransform="matrix(-4.684187e-07 1 -1 -4.684187e-07 147.994 -21.1252)">
	<stop  offset="0" style="stop-color:#163C94"/>
	<stop  offset="1" style="stop-color:#163C94"/>
</linearGradient>
<path class="st76" d="M124.3,63.4v-2V60c0-1-0.8-1.9-1.9-1.9h-1c-1,0-1.9,0.8-1.9,1.9v1.4v2v1.9h1.9h1h1.9V63.4z"/>
<linearGradient id="SVGID_35_" gradientUnits="userSpaceOnUse" x1="79.2111" y1="16.2914" x2="86.4053" y2="16.2914" gradientTransform="matrix(-4.684187e-07 1 -1 -4.684187e-07 147.994 -21.1252)">
	<stop  offset="0" style="stop-color:#163C94"/>
	<stop  offset="1" style="stop-color:#163C94"/>
</linearGradient>
<path class="st77" d="M134.1,63.4v-2V60c0-1-0.8-1.9-1.9-1.9h-1c-1,0-1.9,0.8-1.9,1.9v1.4v2v1.9h1.9h1h1.9V63.4z"/>
<linearGradient id="SVGID_36_" gradientUnits="userSpaceOnUse" x1="100.4801" y1="3.8813" x2="107.6742" y2="3.8813" gradientTransform="matrix(-1 0 0 -1 248.5942 89.2441)">
	<stop  offset="0" style="stop-color:#163C94"/>
	<stop  offset="1" style="stop-color:#163C94"/>
</linearGradient>
<path class="st78" d="M142.8,87.8h2h1.4c1,0,1.9-0.8,1.9-1.9v-1c0-1-0.8-1.9-1.9-1.9h-1.4h-2l-1.9,0v1.9v1v1.9L142.8,87.8z"/>
<path class="st79" d="M86.5,109v-36c-0.3-2.9,1.5-4.9,4.1-4.3h44.2c2-0.6,3.3,1,3.1,3.2V109"/>
<path class="st80" d="M85.3,108.9V71.7c0-2.5,1.9-4.5,4.3-4.5h46.3c1.8,0,3.2,1.5,3.2,3.3v38.4"/>
</svg>
