<?xml version="1.0" encoding="utf-8"?>
<!-- Generator: Adobe Illustrator 22.1.0, SVG Export Plug-In . SVG Version: 6.00 Build 0)  -->
<svg version="1.1" id="Слой_1" xmlns="http://www.w3.org/2000/svg" xmlns:xlink="http://www.w3.org/1999/xlink" x="0px" y="0px"
	 viewBox="0 0 220 200" style="enable-background:new 0 0 220 200;" xml:space="preserve">
<style type="text/css">
	.st0{fill:url(#SVGID_1_);}
	.st1{fill:url(#SVGID_2_);}
	.st2{fill:url(#SVGID_3_);}
	.st3{fill:url(#SVGID_4_);}
	.st4{fill:url(#SVGID_5_);}
	.st5{fill:url(#SVGID_6_);}
	.st6{fill:url(#SVGID_7_);}
	.st7{fill:url(#SVGID_8_);}
	.st8{fill:url(#SVGID_9_);}
	.st9{fill:#FFFFFF;}
	.st10{fill:url(#SVGID_10_);}
	.st11{fill:url(#SVGID_11_);}
	.st12{fill:none;}
	.st13{fill:url(#SVGID_13_);}
	.st14{fill:url(#SVGID_14_);}
	.st15{fill:url(#SVGID_15_);}
	.st16{fill:url(#SVGID_16_);}
	.st17{fill:url(#SVGID_17_);}
	.st18{fill:url(#SVGID_18_);}
	.st19{fill:url(#SVGID_19_);}
	.st20{fill:url(#SVGID_20_);}
	.st21{fill:url(#SVGID_21_);}
	.st22{fill:url(#SVGID_22_);}
	.st23{fill:url(#SVGID_23_);}
	.st24{fill:url(#SVGID_24_);}
	.st25{fill:url(#SVGID_25_);}
	.st26{fill:url(#SVGID_26_);}
	.st27{fill:url(#SVGID_27_);}
	.st28{fill:#163C94;}
	.st29{font-family:'RobotoSlab-Bold';}
	.st30{font-size:19.0546px;}
	.st31{font-size:5.0812px;}
	.st32{font-size:10.7976px;}
	.st33{fill:url(#SVGID_28_);}
	.st34{fill:url(#SVGID_29_);}
	.st35{fill:url(#SVGID_30_);}
	.st36{fill:url(#SVGID_31_);}
	.st37{fill:url(#SVGID_32_);}
	.st38{fill:url(#SVGID_33_);}
	.st39{fill:url(#SVGID_34_);}
	.st40{fill:url(#SVGID_35_);}
	.st41{fill:url(#SVGID_36_);}
	.st42{fill:url(#SVGID_37_);}
	.st43{fill:url(#SVGID_38_);}
	.st44{fill:url(#SVGID_39_);}
	.st45{fill:url(#SVGID_40_);}
	.st46{fill:url(#SVGID_41_);}
	.st47{fill:url(#SVGID_42_);}
	.st48{fill:url(#SVGID_43_);}
	.st49{fill:url(#SVGID_44_);}
	.st50{fill:url(#SVGID_45_);}
	.st51{fill:url(#SVGID_46_);}
	.st52{fill:url(#SVGID_47_);}
	.st53{fill:url(#SVGID_48_);}
	.st54{fill:url(#SVGID_49_);}
	.st55{fill:url(#SVGID_50_);}
	.st56{fill:url(#SVGID_51_);}
	.st57{fill:url(#SVGID_52_);}
	.st58{fill:url(#SVGID_53_);}
	.st59{fill:url(#SVGID_54_);}
	.st60{fill:url(#SVGID_55_);}
	.st61{fill:url(#SVGID_56_);}
	.st62{fill:url(#SVGID_57_);}
	.st63{fill:url(#SVGID_58_);}
	.st64{fill:url(#SVGID_59_);}
	.st65{fill:url(#SVGID_60_);}
	.st66{fill:url(#SVGID_61_);}
	.st67{fill:url(#SVGID_62_);}
	.st68{fill:url(#SVGID_63_);}
	.st69{fill:url(#SVGID_64_);}
	.st70{fill:url(#SVGID_65_);}
	.st71{fill:url(#SVGID_66_);}
	.st72{fill:url(#SVGID_67_);}
	.st73{fill:url(#SVGID_68_);}
	.st74{fill:url(#SVGID_69_);}
	.st75{fill:url(#SVGID_70_);}
	.st76{fill:url(#SVGID_71_);}
	.st77{fill:url(#SVGID_72_);}
	.st78{fill:url(#SVGID_73_);}
	.st79{fill:url(#SVGID_74_);}
	.st80{fill:url(#SVGID_75_);}
	.st81{fill:url(#SVGID_76_);}
	.st82{fill:url(#SVGID_77_);}
	.st83{fill:url(#SVGID_78_);}
	.st84{fill:url(#SVGID_79_);}
</style>
<linearGradient id="SVGID_1_" gradientUnits="userSpaceOnUse" x1="57.4752" y1="56.3789" x2="166.065" y2="56.3789">
	<stop  offset="0" style="stop-color:#163C94"/>
	<stop  offset="1" style="stop-color:#163C94"/>
</linearGradient>
<path class="st0" d="M124.6,20.9c0.5-1.7,1.4-1.8,2.7-1.2c2.7,1.3,5.4,2.6,8.1,3.8c0.4,0.2,1,0.2,1.3-0.1c0.5-0.3,0.8-0.9,1.2-1.4
	c1.7-2,4.4-1.8,5.6,0.5c0.3,0.7-0.1,1.8-0.5,2.6c-0.8,1.6-1.1,2.7,0.9,4c2.3,1.6,4.2,3.9,6,6.1c1,1.2,1.6,1.3,2.8,0.5
	c2.9-1.7,3.1-1.6,4.8,0.8c1,1.3,0.9,2.3-0.4,3.3c-0.5,0.4-1.2,0.9-1.4,1.5c-0.3,0.7-0.3,1.6-0.1,2.3c1.1,3.1,2.5,6,3.6,9.1
	c0.4,1,0.7,1.5,1.8,1.3c0.6-0.1,1.2-0.2,1.8-0.2c1.6-0.2,2.5,0.2,2.9,2c0.3,1.8,0.3,3.1-1.8,3.6c-0.7,0.2-1.4,0.6-2.1,0.9
	c-0.8,0.4-0.8,0.8-0.7,1.9c0.3,3.2,0.3,6.4,0.1,9.6c-0.1,1.4,0.2,1.9,1.3,2.2c0.5,0.1,0.9,0.3,1.4,0.4c1.6,0.4,2.4,1.2,2,3.1
	c-0.4,1.9-1,2.7-3.1,2.6c-1.7-0.1-3.5,0.4-5.4,0.6c2-0.1,2.1,0.9,1.5,2.3c-1.3,2.6-2.6,5.3-3.8,7.9c-0.2,0.4,0.1,1.2,0.4,1.7
	c0.4,0.5,1.1,0.8,1.6,1.3c1.6,1.5,1.2,4.1-0.8,5.2c-1.4,0.7-4.8-1.4-4.8-3c0-6.7,0.5-13.5-0.1-20.2c-0.9-9.3-1.1-18.8-5.8-27.3
	c-8-14.5-24.6-22.5-40.8-19.4C88.1,32.7,75.6,46,73.5,62.7c-0.2,2-0.8,4-1.1,6c-0.5,3.2-1,6.5-1.1,9.8c-0.2,6-0.2,11.9,0,17.9
	c0.1,2.3-1.6,2.2-2.8,2.8c-1.3,0.7-1.8-0.2-2.5-1.1c-1.8-2.6-1.8-2.6,0.6-4.6c1.1-0.9,1.1-1.5,0.4-2.9c-1.4-2.6-2.7-5.4-3.4-8.3
	c-0.4-1.7-1.2-1.9-2.5-1.9c-2.8-0.1-4.1-1.5-3.5-4.2c0.1-0.7,1.3-1.5,2.2-1.7c1.5-0.4,1.9-0.8,1.8-2.5c-0.2-3.3,0.2-6.6,0.1-9.8
	c0-0.7-0.9-1.6-1.5-1.9c-2.6-1.3-3.3-2.7-1.9-5.2c0.3-0.6,1.6-1,2.4-0.9c1.7,0.1,2.6-0.1,3.1-2.1c0.6-2.7,2-5.3,3.3-7.7
	c0.8-1.5,0.7-2.3-0.4-3.4c-1.9-1.8-1.7-4.1,0.5-5.5c0.6-0.4,1.9-0.2,2.6,0.3c1.4,1,2.1,0.9,3.2-0.6c1.8-2.3,4-4.3,6.3-6.1
	c1.3-1,1.4-1.8,0.8-3.1c-1.1-2.6-0.1-4.6,2.6-5.1c0.7-0.1,1.8,0.6,2.3,1.3c1.1,1.5,1.9,1.6,3.6,0.6c2.5-1.5,5.3-2.4,8.1-3.2
	c1.4-0.4,1.8-0.9,1.6-2.2c-0.3-3.3,0.5-4.3,3.8-4c0.7,0,1.7,1.2,2,2.1c0.5,1.6,1,2.3,3,2.1c3.1-0.3,6.3,0.1,9.4,0
	c0.7,0,1.6-1.1,1.9-1.8c0.7-1.6,1.2-2.9,3.5-2.4c2.2,0.4,2.9,1.3,2.7,3.4C124.4,18,124.6,19.5,124.6,20.9z M114.2,21.9
	c0-0.1,0-0.1,0-0.2c-2.1,0-4.3,0-6.4,0c0,0.1,0,0.1,0,0.2C110,21.9,112.1,21.9,114.2,21.9z"/>
<linearGradient id="SVGID_2_" gradientUnits="userSpaceOnUse" x1="19.0861" y1="132.2277" x2="205.3075" y2="132.2277">
	<stop  offset="0" style="stop-color:#163C94"/>
	<stop  offset="1" style="stop-color:#163C94"/>
</linearGradient>
<path class="st1" d="M197.2,136.2c-23.7-1.1-47.4-2.2-71.1-3.3c-0.3,0-0.7,0-1,0c-1.9-0.5-3.9-1.2-4.8,1.6c-0.1,0.3-0.8,0.4-1.3,0.5
	c-3.5,0.3-7,0.8-10.5,0.8c-1.8,0-3.5-0.8-5.3-1.2c-0.9-0.2-1.9-0.4-2.8-0.4c-13.1,0.4-26.1,0.9-39.2,1.4
	c-12.9,0.5-25.8,1.2-38.7,1.8c-1.5,0.1-3,0.2-3.4-1.8c-0.2-1.3,0.1-2,1.7-2.1c12.4-0.5,24.7-1.1,37.1-1.7
	c14.8-0.8,29.7-1.6,44.5-2.5c2.1-0.1,3,0.7,3.5,2.4c0.6,2.1,1.8,2.3,3.3,1.2c3-2,6.2-2.3,9.7-1.4c0.6,0.2,2-0.7,2.3-1.4
	c1.2-2.8,3.4-3,6.1-2.8c25.1,1.9,50.2,3.8,75.2,5.7c0.7,0.1,1.6,0.2,2.1,0.7c0.5,0.5,0.8,1.4,0.8,2.2c0,0.3-1,0.9-1.5,0.9
	c-2.2,0.1-4.4,0-6.6,0C197.2,136.6,197.2,136.4,197.2,136.2z"/>
<linearGradient id="SVGID_3_" gradientUnits="userSpaceOnUse" x1="22.8018" y1="122.178" x2="112.1491" y2="122.178">
	<stop  offset="0" style="stop-color:#163C94"/>
	<stop  offset="1" style="stop-color:#163C94"/>
</linearGradient>
<path class="st2" d="M112.1,127.2c-1.9,1-3.6,2-5.3,2.9c-2.1-2.2-4.9-2.2-7.7-2.2c-10.4,0.1-20.8,0.3-31.1,0.5
	c-12.4,0.3-24.9,0.7-37.3,1c-2.7,0.1-5.3,0-7.9,0c1.7-1.3,3.3-2.5,4.9-3.7c2-1.5,3.9-2.9,6.5-3.4c8.5-1.7,16.8-4,25.3-5.7
	c10.8-2.1,21.8-3.2,32.8-1.9c5.5,0.6,10.8,2.2,15.2,5.7C110,122.5,111.5,124.7,112.1,127.2z M37,127.7c0,0.3,0,0.5,0,0.8
	c6-0.4,12-0.7,18-1.2c15.8-1.4,31.5-3.5,47.4-0.8c-0.5-0.3-1-0.6-1.5-0.7c-8.7-2.2-17.5-3.6-26.5-2.6
	C61.9,124.5,49.4,126.2,37,127.7z M95.1,120.3c-10.1-3-20.3-1.9-30.6-0.4C74.7,119.2,84.8,118.4,95.1,120.3z M73.7,117.2
	c4.4,0.3,9.8,0.1,15.1,1c5.2,0.9,10.2,2.8,14.9,4.1C94.4,116.9,83.8,116.2,73.7,117.2z M78.5,120.3c0,0.1,0,0.1-0.1,0.2
	c5.5,0.4,11,0.9,16.6,1.3c0-0.2,0-0.3,0-0.5C89.5,121,84,120.6,78.5,120.3z"/>
<linearGradient id="SVGID_4_" gradientUnits="userSpaceOnUse" x1="84.5384" y1="89.8608" x2="138.4686" y2="89.8608">
	<stop  offset="0" style="stop-color:#163C94"/>
	<stop  offset="1" style="stop-color:#163C94"/>
</linearGradient>
<path class="st3" d="M138.1,111.4c0-13.4,0-26.9,0-40.3c-0.1,0-0.2,0-0.3,0c0,13.5,0,26.9,0,40.6c-1.4,0-2.6,0-4.1,0
	c0-1,0-1.8,0-2.6c0-11.1,0-22.3,0-33.4c0-2.7-0.2-2.9-2.9-2.9c-12.9,0-25.7,0-38.6,0c-2.6,0-2.9,0.3-2.9,2.8c0,11.1,0,22.3,0,33.4
	c0,0.8,0,1.6,0,2.7c-1.6,0-3,0-4.7,0c0-0.7-0.1-1.4-0.1-2.1c0-12.8,0-25.6,0-38.4c0-2.9,0.3-3.2,3.2-3.2c15.9,0,31.8,0,47.6,0
	c2.8,0,3.1,0.3,3.1,3.1c0,12.9,0,25.7,0,38.6c0,0.6-0.1,1.2-0.1,1.8C138.3,111.5,138.2,111.5,138.1,111.4z M87.5,68.7
	C87.5,68.7,87.5,68.7,87.5,68.7c16,0,32,0,48,0c0,0,0,0,0,0C119.5,68.7,103.5,68.7,87.5,68.7z"/>
<linearGradient id="SVGID_5_" gradientUnits="userSpaceOnUse" x1="112.9588" y1="120.7875" x2="196.0361" y2="120.7875">
	<stop  offset="0" style="stop-color:#163C94"/>
	<stop  offset="1" style="stop-color:#163C94"/>
</linearGradient>
<path class="st4" d="M196,128.1c-1.5,0-3.1,0.2-4.6,0c-9.1-1.1-18.3-2.1-27.4-3.3c-12.6-1.6-25.2-2.5-37.7,0.7c-2.5,0.6-4.7,2-7.1,3
	c-0.5,0.2-1.3,0.2-1.8,0c-1.4-0.5-2.7-1.1-4.3-1.7c0.7-3.2,2.5-6,5.2-8.2c4.7-3.9,10.3-5.1,16.1-5.3c10.5-0.5,20.7,1.4,30.8,3.9
	c7.4,1.9,14.7,3.9,22.1,5.7c2.2,0.5,4,1.4,5.8,2.7c1,0.8,2,1.4,3,2.1C196,127.7,196,127.9,196,128.1z M118.3,122.8
	c0.1,0.1,0.2,0.3,0.3,0.4c1.8-0.9,3.6-1.9,5.5-2.7c5.9-2.4,12.1-2.7,18.3-2.2c8.7,0.8,17.5,2.1,26.2,3.3c4.7,0.7,9.3,1.7,13.9,2.5
	c-13.9-4.1-27.9-7.5-42.4-7.7c-5.7-0.1-11.3,0.7-16.5,3.2C121.6,120.5,120,121.7,118.3,122.8z M157,122.7
	c-11.5-2.2-20.7-2.7-23.9-1.7C140.7,121.5,149.1,122.1,157,122.7z M144.5,119.3c0,0,0-0.1,0-0.1c-5,0.2-10,0.4-15.1,0.6
	c0,0.1,0,0.3,0,0.4C134.5,119.9,139.5,119.6,144.5,119.3z"/>
<linearGradient id="SVGID_6_" gradientUnits="userSpaceOnUse" x1="101.6583" y1="42.7622" x2="119.3412" y2="42.7622">
	<stop  offset="0" style="stop-color:#163C94"/>
	<stop  offset="1" style="stop-color:#163C94"/>
</linearGradient>
<path class="st5" d="M101.7,34.9c5.9-2,11.7-2,17.7-0.8c-0.7,5.1-1.2,10.1-3.6,14.7c-2.2,4.3-5.9,4.5-8.6,0.4
	C104.3,45,102.9,40,101.7,34.9z"/>
<linearGradient id="SVGID_7_" gradientUnits="userSpaceOnUse" x1="129.0391" y1="54.8199" x2="145.484" y2="54.8199">
	<stop  offset="0" style="stop-color:#163C94"/>
	<stop  offset="1" style="stop-color:#163C94"/>
</linearGradient>
<path class="st6" d="M140,48.3c1.9,4.5,3.7,8.5,5.5,12.6c-0.2,0.2-0.4,0.3-0.6,0.5c-4.6-3.7-9.8-5.1-15.6-4.9
	c-0.1-0.2-0.2-0.4-0.3-0.5C132.5,53.5,136,51.1,140,48.3z"/>
<linearGradient id="SVGID_8_" gradientUnits="userSpaceOnUse" x1="118.7255" y1="61.7421" x2="123.5631" y2="61.7421">
	<stop  offset="0" style="stop-color:#163C94"/>
	<stop  offset="1" style="stop-color:#163C94"/>
</linearGradient>
<path class="st7" d="M123.6,65.3c-1.7,0-3.1,0-4.8,0c0-1.8-0.1-3.6,0-5.3c0.1-1.5,1.3-1.9,2.6-1.9c1.2,0,2.1,0.5,2.1,1.9
	C123.6,61.7,123.6,63.4,123.6,65.3z"/>
<linearGradient id="SVGID_9_" gradientUnits="userSpaceOnUse" x1="128.6277" y1="61.7203" x2="133.4325" y2="61.7203">
	<stop  offset="0" style="stop-color:#163C94"/>
	<stop  offset="1" style="stop-color:#163C94"/>
</linearGradient>
<path class="st8" d="M133.4,65.3c-1.6,0-3,0-4.7,0c0-1.9-0.2-3.8,0.1-5.7c0.1-0.6,1.4-1.3,2.2-1.4c1.3-0.3,2.3,0.4,2.4,1.9
	C133.5,61.7,133.4,63.4,133.4,65.3z"/>
<path class="st9" d="M150.1,141c-1,0.7-1.6,1.4-2.2,1.4c-0.4,0-1.3-1.1-1.2-1.4c0.2-0.6,0.9-1.3,1.5-1.5
	C148.6,139.3,149.2,140.2,150.1,141z"/>
<path class="st9" d="M133.6,143c-0.7-1.1-1.2-1.7-1.3-2.4c0-0.4,0.9-1.2,1.2-1.2c0.6,0.2,1.4,0.8,1.4,1.3
	C135,141.3,134.3,142,133.6,143z"/>
<path class="st9" d="M59,138.6c0.8,1.1,1.5,1.6,1.5,2.2c0,0.6-0.7,1.1-1.1,1.7c-0.5-0.4-1.2-0.8-1.3-1.2
	C58.1,140.6,58.6,139.9,59,138.6z"/>
<path class="st9" d="M84.1,140.9c-0.9,0.7-1.6,1.5-2,1.4c-0.5-0.1-1.2-0.9-1.3-1.5c-0.1-0.4,0.8-1.3,1.2-1.2
	C82.6,139.5,83.1,140.2,84.1,140.9z"/>
<path class="st9" d="M102.7,143.1c-0.6-1.1-1.2-1.6-1.2-2.2c0-0.5,0.7-1,1-1.5c0.5,0.5,1.3,0.9,1.3,1.5
	C103.9,141.4,103.3,142,102.7,143.1z"/>
<path class="st9" d="M156.2,140.8c-0.9,0.7-1.4,1.1-2,1.5c-0.4-0.6-1-1.1-1.2-1.7c-0.1-0.3,0.8-1.2,1.1-1.1
	C154.8,139.6,155.3,140.2,156.2,140.8z"/>
<path class="st9" d="M128.4,140.9c-0.7,0.7-1.2,1.2-1.6,1.7c-0.4-0.5-1.1-1-1.1-1.5c0-0.6,0.7-1.1,1.1-1.6
	C127.3,139.8,127.7,140.2,128.4,140.9z"/>
<path class="st9" d="M65.6,138.7c0.5,1.2,1,1.8,0.8,2.3c-0.2,0.6-0.8,1-1.3,1.5c-0.3-0.6-0.8-1.1-0.8-1.7
	C64.3,140.3,64.9,139.8,65.6,138.7z"/>
<linearGradient id="SVGID_10_" gradientUnits="userSpaceOnUse" x1="107.8633" y1="21.8503" x2="114.2427" y2="21.8503">
	<stop  offset="0" style="stop-color:#163C94"/>
	<stop  offset="1" style="stop-color:#163C94"/>
</linearGradient>
<path class="st10" d="M114.2,21.9c-2.1,0-4.2,0-6.4,0c0-0.1,0-0.1,0-0.2c2.1,0,4.3,0,6.4,0C114.2,21.8,114.2,21.9,114.2,21.9z"/>
<path class="st9" d="M37,127.7c12.5-1.5,24.9-3.2,37.4-4.6c9-1,17.8,0.5,26.5,2.6c0.5,0.1,1,0.4,1.5,0.7
	c-15.9-2.7-31.6-0.6-47.4,0.8c-6,0.5-12,0.8-18,1.2C37,128.3,37,128,37,127.7z"/>
<path class="st9" d="M78.5,120.3c5.5,0.3,11,0.7,16.5,1c0,0.2,0,0.3,0,0.5c-5.5-0.4-11-0.9-16.6-1.3
	C78.4,120.4,78.5,120.4,78.5,120.3z"/>
<linearGradient id="SVGID_11_" gradientUnits="userSpaceOnUse" x1="87.5146" y1="68.6935" x2="135.4796" y2="68.6935">
	<stop  offset="0" style="stop-color:#163C94"/>
	<stop  offset="1" style="stop-color:#163C94"/>
</linearGradient>
<path class="st11" d="M87.5,68.7c16,0,32,0,48,0c0,0,0,0,0,0C119.5,68.7,103.5,68.7,87.5,68.7C87.5,68.7,87.5,68.7,87.5,68.7z"/>
<path class="st9" d="M157,122.7c-7.9-0.6-16.3-1.2-23.9-1.7C136.3,120,145.5,120.5,157,122.7z"/>
<path class="st9" d="M144.5,119.3c-5,0.3-10.1,0.6-15.1,0.9c0-0.1,0-0.3,0-0.4c5-0.2,10-0.4,15.1-0.6
	C144.5,119.2,144.5,119.2,144.5,119.3z"/>
<path d="M118.2,153.8"/>
<path id="SVGID_x5F_12_x5F_" class="st12" d="M162,39.5c16.5,28.1,7.6,63.6-20,79.3s-63.3,5.7-79.9-22.3s-7.6-63.6,20-79.3
	S145.5,11.5,162,39.5z"/>
<text><textPath  xlink:href="#SVGID_x5F_12_x5F_" startOffset="66.6667%">
<tspan  class="st28 st29" style="font-size:9.5273px;">КОЛЕДЖ ТРАНСПОРТУ ТА КОМП’ЮТЕРНИХ ТЕХНОЛОГІЙ</tspan></textPath>
</text>
<linearGradient id="SVGID_13_" gradientUnits="userSpaceOnUse" x1="-6.2725" y1="44.1108" x2="11.4104" y2="44.1108" gradientTransform="matrix(0.8268 -0.5624 0.5624 0.8268 69.1218 12.4275)">
	<stop  offset="0" style="stop-color:#163C94"/>
	<stop  offset="1" style="stop-color:#163C94"/>
</linearGradient>
<path class="st13" d="M84.3,46c3.7-5,8.5-8.3,14.2-10.6c2.3,4.6,4.7,9,5.3,14.2c0.6,4.8-2.3,7-6.8,5.2C92.2,52.7,88.3,49.4,84.3,46z
	"/>
<linearGradient id="SVGID_14_" gradientUnits="userSpaceOnUse" x1="242.274" y1="28.4222" x2="259.9569" y2="28.4222" gradientTransform="matrix(0.7728 0.6346 -0.6346 0.7728 -50.17 -134.4245)">
	<stop  offset="0" style="stop-color:#163C94"/>
	<stop  offset="1" style="stop-color:#163C94"/>
</linearGradient>
<path class="st14" d="M124,35.3c5.8,2.1,10.3,5.8,14.2,10.6c-3.7,3.5-7.3,7.1-12.1,9.1c-4.5,1.9-7.4-0.2-6.9-5.1
	C119.7,44.7,121.8,40,124,35.3z"/>
<linearGradient id="SVGID_15_" gradientUnits="userSpaceOnUse" x1="128.6113" y1="61.7059" x2="133.4489" y2="61.7059">
	<stop  offset="0" style="stop-color:#163C94"/>
	<stop  offset="1" style="stop-color:#163C94"/>
</linearGradient>
<path class="st15" d="M133.4,65.3c-1.7,0-3.1,0-4.8,0c0-1.8-0.1-3.6,0-5.3c0.1-1.5,1.3-1.9,2.6-1.9c1.2,0,2.1,0.5,2.1,1.9
	C133.4,61.7,133.4,63.4,133.4,65.3z"/>
<linearGradient id="SVGID_16_" gradientUnits="userSpaceOnUse" x1="109.0783" y1="61.7059" x2="113.9159" y2="61.7059">
	<stop  offset="0" style="stop-color:#163C94"/>
	<stop  offset="1" style="stop-color:#163C94"/>
</linearGradient>
<path class="st16" d="M113.9,65.3c-1.7,0-3.1,0-4.8,0c0-1.8-0.1-3.6,0-5.3c0.1-1.5,1.3-1.9,2.6-1.9c1.2,0,2.1,0.5,2.1,1.9
	C113.9,61.7,113.9,63.4,113.9,65.3z"/>
<linearGradient id="SVGID_17_" gradientUnits="userSpaceOnUse" x1="99.2395" y1="61.7421" x2="104.0771" y2="61.7421">
	<stop  offset="0" style="stop-color:#163C94"/>
	<stop  offset="1" style="stop-color:#163C94"/>
</linearGradient>
<path class="st17" d="M104.1,65.3c-1.7,0-3.1,0-4.8,0c0-1.8-0.1-3.6,0-5.3c0.1-1.5,1.3-1.9,2.6-1.9c1.2,0,2.1,0.5,2.1,1.9
	C104.1,61.7,104.1,63.4,104.1,65.3z"/>
<linearGradient id="SVGID_18_" gradientUnits="userSpaceOnUse" x1="88.2431" y1="61.7059" x2="93.0807" y2="61.7059">
	<stop  offset="0" style="stop-color:#163C94"/>
	<stop  offset="1" style="stop-color:#163C94"/>
</linearGradient>
<path class="st18" d="M93.1,65.3c-1.7,0-3.1,0-4.8,0c0-1.8-0.1-3.6,0-5.3c0.1-1.5,1.3-1.9,2.6-1.9c1.2,0,2.1,0.5,2.1,1.9
	C93.1,61.7,93.1,63.4,93.1,65.3z"/>
<linearGradient id="SVGID_19_" gradientUnits="userSpaceOnUse" x1="-94.1055" y1="61.0619" x2="-89.2679" y2="61.0619" gradientTransform="matrix(7.177508e-08 -1 1 7.177508e-08 16.6525 -16.1999)">
	<stop  offset="0" style="stop-color:#163C94"/>
	<stop  offset="1" style="stop-color:#163C94"/>
</linearGradient>
<path class="st19" d="M81.3,73.1c0,1.7,0,3.1,0,4.8c-1.8,0-3.6,0.1-5.3,0c-1.5-0.1-1.9-1.3-1.9-2.6c0-1.2,0.5-2.1,1.9-2.1
	C77.7,73.1,79.4,73.1,81.3,73.1z"/>
<linearGradient id="SVGID_20_" gradientUnits="userSpaceOnUse" x1="-103.9591" y1="61.0619" x2="-99.1215" y2="61.0619" gradientTransform="matrix(7.177508e-08 -1 1 7.177508e-08 16.6525 -16.1999)">
	<stop  offset="0" style="stop-color:#163C94"/>
	<stop  offset="1" style="stop-color:#163C94"/>
</linearGradient>
<path class="st20" d="M81.3,82.9c0,1.7,0,3.1,0,4.8c-1.8,0-3.6,0.1-5.3,0c-1.5-0.1-1.9-1.3-1.9-2.6c0-1.2,0.5-2.1,1.9-2.1
	C77.7,82.9,79.4,82.9,81.3,82.9z"/>
<linearGradient id="SVGID_21_" gradientUnits="userSpaceOnUse" x1="-113.4955" y1="61.0619" x2="-108.6579" y2="61.0619" gradientTransform="matrix(7.177508e-08 -1 1 7.177508e-08 16.6525 -16.1999)">
	<stop  offset="0" style="stop-color:#163C94"/>
	<stop  offset="1" style="stop-color:#163C94"/>
</linearGradient>
<path class="st21" d="M81.3,92.5c0,1.7,0,3.1,0,4.8c-1.8,0-3.6,0.1-5.3,0c-1.5-0.1-1.9-1.3-1.9-2.6c0-1.2,0.5-2.1,1.9-2.1
	C77.7,92.5,79.4,92.5,81.3,92.5z"/>
<linearGradient id="SVGID_22_" gradientUnits="userSpaceOnUse" x1="-123.2699" y1="61.0619" x2="-118.4323" y2="61.0619" gradientTransform="matrix(7.177508e-08 -1 1 7.177508e-08 16.6525 -16.1999)">
	<stop  offset="0" style="stop-color:#163C94"/>
	<stop  offset="1" style="stop-color:#163C94"/>
</linearGradient>
<path class="st22" d="M81.3,102.2c0,1.7,0,3.1,0,4.8c-1.8,0-3.6,0.1-5.3,0c-1.5-0.1-1.9-1.3-1.9-2.6c0-1.2,0.5-2.1,1.9-2.1
	C77.7,102.2,79.4,102.2,81.3,102.2z"/>
<linearGradient id="SVGID_23_" gradientUnits="userSpaceOnUse" x1="100.3412" y1="159.8268" x2="105.1788" y2="159.8268" gradientTransform="matrix(-6.583777e-07 1 -1 -6.583777e-07 304.5913 -27.2731)">
	<stop  offset="0" style="stop-color:#163C94"/>
	<stop  offset="1" style="stop-color:#163C94"/>
</linearGradient>
<path class="st23" d="M141.2,77.9c0-1.7,0-3.1,0-4.8c1.8,0,3.6-0.1,5.3,0c1.5,0.1,1.9,1.3,1.9,2.6c0,1.2-0.5,2.1-1.9,2.1
	C144.8,77.9,143.1,77.9,141.2,77.9z"/>
<linearGradient id="SVGID_24_" gradientUnits="userSpaceOnUse" x1="110.1948" y1="160.0747" x2="115.0324" y2="160.0747" gradientTransform="matrix(-6.583777e-07 1 -1 -6.583777e-07 304.5913 -27.2731)">
	<stop  offset="0" style="stop-color:#163C94"/>
	<stop  offset="1" style="stop-color:#163C94"/>
</linearGradient>
<path class="st24" d="M140.9,87.8c0-1.7,0-3.1,0-4.8c1.8,0,3.6-0.1,5.3,0c1.5,0.1,1.9,1.3,1.9,2.6c0,1.2-0.5,2.1-1.9,2.1
	C144.5,87.8,142.8,87.8,140.9,87.8z"/>
<linearGradient id="SVGID_25_" gradientUnits="userSpaceOnUse" x1="120.0694" y1="160.0747" x2="124.907" y2="160.0747" gradientTransform="matrix(-6.583777e-07 1 -1 -6.583777e-07 304.5913 -27.2731)">
	<stop  offset="0" style="stop-color:#163C94"/>
	<stop  offset="1" style="stop-color:#163C94"/>
</linearGradient>
<path class="st25" d="M140.9,97.6c0-1.7,0-3.1,0-4.8c1.8,0,3.6-0.1,5.3,0c1.5,0.1,1.9,1.3,1.9,2.6c0,1.2-0.5,2.1-1.9,2.1
	C144.5,97.6,142.8,97.6,140.9,97.6z"/>
<linearGradient id="SVGID_26_" gradientUnits="userSpaceOnUse" x1="129.5057" y1="160.0747" x2="134.3433" y2="160.0747" gradientTransform="matrix(-6.583777e-07 1 -1 -6.583777e-07 304.5913 -27.2731)">
	<stop  offset="0" style="stop-color:#163C94"/>
	<stop  offset="1" style="stop-color:#163C94"/>
</linearGradient>
<path class="st26" d="M140.9,107.1c0-1.7,0-3.1,0-4.8c1.8,0,3.6-0.1,5.3,0c1.5,0.1,1.9,1.3,1.9,2.6c0,1.2-0.5,2.1-1.9,2.1
	C144.5,107.1,142.8,107.1,140.9,107.1z"/>
<linearGradient id="SVGID_27_" gradientUnits="userSpaceOnUse" x1="-12.6296" y1="71.1295" x2="3.8153" y2="71.1295" gradientTransform="matrix(0.866 -0.5 0.5 0.866 52.0007 -9.2399)">
	<stop  offset="0" style="stop-color:#163C94"/>
	<stop  offset="1" style="stop-color:#163C94"/>
</linearGradient>
<path class="st27" d="M82.9,47.5c3.9,2.9,7.5,5.5,11.1,8.2c-0.1,0.2-0.2,0.5-0.3,0.7c-5.8-0.9-11.1,0.5-15.9,3.5
	c-0.2-0.1-0.3-0.2-0.5-0.3C79,55.8,80.8,52,82.9,47.5z"/>
<polygon class="st12" points="209,108.3 208,108.3 208,108.3 209,108.3 "/>
<text transform="matrix(1 0 0 1 105.4185 108.3491)" class="st28 st29 st30">КТ</text>
<text transform="matrix(1 0 0 1 90.6621 90.7764)" class="st28 st29 st30">КТ</text>
<line class="st12" x1="137.8" y1="111.7" x2="138.1" y2="111.4"/>
<text transform="matrix(1 0 0 1 23.2646 143.0215)" class="st28 st29 st31">ЧЕРНІГІВСЬКОГО НАЦІОНАЛЬНОГО ТЕХНОЛОГІЧНОГО УНІВЕРСИТЕТУ</text>
<text transform="matrix(1 0 0 1 36.1611 157.8906)"><tspan x="0" y="0" class="st28 st29 st32">КОЛЕДЖ ТРАНСПОРТУ ТА </tspan><tspan x="-10.9" y="13" class="st28 st29 st32">КОМП’ЮТЕРНИХ ТЕХНОЛОГІЙ </tspan><tspan x="-19" y="25.9" class="st28 st29 st32">ЧЕРНІГВСЬКОГО НАЦІОАЛЬНОГО </tspan><tspan x="-20.8" y="38.9" class="st28 st29 st32">ТЕХНОЛОГІЧНОГО УНІВЕРСИТЕТУ</tspan></text>
<rect x="186.7" y="-66" class="st12" width="0.6" height="1.9"/>
<g>
	<g>
		<linearGradient id="SVGID_28_" gradientUnits="userSpaceOnUse" x1="136.0129" y1="71.7806" x2="137.0729" y2="71.7806">
			<stop  offset="0" style="stop-color:#163C94"/>
			<stop  offset="1" style="stop-color:#163C94"/>
		</linearGradient>
		<path class="st33" d="M135,71.2c0,0.4,0,0.7,0.1,1.1c0,0.8,0.7,1.5,1.5,1.5c0.8,0,1.5-0.7,1.5-1.5c0-0.4,0-0.7-0.1-1.1
			c0-0.8-0.7-1.5-1.5-1.5C135.7,69.8,135,70.4,135,71.2L135,71.2z"/>
	</g>
</g>
<g>
	<g>
		<linearGradient id="SVGID_29_" gradientUnits="userSpaceOnUse" x1="135.3635" y1="72.1875" x2="138.2615" y2="72.1875">
			<stop  offset="0" style="stop-color:#163C94"/>
			<stop  offset="1" style="stop-color:#163C94"/>
		</linearGradient>
		<path class="st34" d="M136.8,73.7c1.9,0,1.9-3,0-3C134.9,70.7,134.9,73.7,136.8,73.7L136.8,73.7z"/>
	</g>
</g>
<g>
	<g>
		<linearGradient id="SVGID_30_" gradientUnits="userSpaceOnUse" x1="135.176" y1="71.625" x2="138.074" y2="71.625">
			<stop  offset="0" style="stop-color:#163C94"/>
			<stop  offset="1" style="stop-color:#163C94"/>
		</linearGradient>
		<path class="st35" d="M136.6,73.1c1.9,0,1.9-3,0-3C134.7,70.1,134.7,73.1,136.6,73.1L136.6,73.1z"/>
	</g>
</g>
<g>
	<g>
		<linearGradient id="SVGID_31_" gradientUnits="userSpaceOnUse" x1="135.176" y1="72.5" x2="138.074" y2="72.5">
			<stop  offset="0" style="stop-color:#163C94"/>
			<stop  offset="1" style="stop-color:#163C94"/>
		</linearGradient>
		<path class="st36" d="M136.6,74c1.9,0,1.9-3,0-3C134.7,71,134.7,74,136.6,74L136.6,74z"/>
	</g>
</g>
<g>
	<g>
		<linearGradient id="SVGID_32_" gradientUnits="userSpaceOnUse" x1="136.125" y1="72.7813" x2="137.125" y2="72.7813">
			<stop  offset="0" style="stop-color:#163C94"/>
			<stop  offset="1" style="stop-color:#163C94"/>
		</linearGradient>
		<path class="st37" d="M135.1,72.8C135.1,72.8,135.1,72.8,135.1,72.8c0,0.8,0.7,1.6,1.5,1.6c0.8,0,1.5-0.7,1.5-1.5c0,0,0,0,0-0.1
			c0-0.8-0.7-1.5-1.5-1.5C135.8,71.3,135.1,71.9,135.1,72.8L135.1,72.8z"/>
	</g>
</g>
<g>
	<g>
		<linearGradient id="SVGID_33_" gradientUnits="userSpaceOnUse" x1="135.176" y1="73" x2="138.074" y2="73">
			<stop  offset="0" style="stop-color:#163C94"/>
			<stop  offset="1" style="stop-color:#163C94"/>
		</linearGradient>
		<path class="st38" d="M136.6,74.5c1.9,0,1.9-3,0-3C134.7,71.5,134.7,74.5,136.6,74.5L136.6,74.5z"/>
	</g>
</g>
<g>
	<g>
		<linearGradient id="SVGID_34_" gradientUnits="userSpaceOnUse" x1="135.426" y1="71.5625" x2="138.324" y2="71.5625">
			<stop  offset="0" style="stop-color:#163C94"/>
			<stop  offset="1" style="stop-color:#163C94"/>
		</linearGradient>
		<path class="st39" d="M136.9,73.1c1.9,0,1.9-3,0-3C134.9,70.1,134.9,73.1,136.9,73.1L136.9,73.1z"/>
	</g>
</g>
<g>
	<g>
		<linearGradient id="SVGID_35_" gradientUnits="userSpaceOnUse" x1="136.25" y1="90.0625" x2="137.25" y2="90.0625">
			<stop  offset="0" style="stop-color:#163C94"/>
			<stop  offset="1" style="stop-color:#163C94"/>
		</linearGradient>
		<path class="st40" d="M135.3,72.5c0,11.7,0,23.4,0,35.1c0,1.9,3,1.9,3,0c0-11.7,0-23.4,0-35.1C138.3,70.6,135.3,70.6,135.3,72.5
			L135.3,72.5z"/>
	</g>
</g>
<g>
	<g>
		<linearGradient id="SVGID_36_" gradientUnits="userSpaceOnUse" x1="136.375" y1="109.3125" x2="137.375" y2="109.3125">
			<stop  offset="0" style="stop-color:#163C94"/>
			<stop  offset="1" style="stop-color:#163C94"/>
		</linearGradient>
		<path class="st41" d="M135.4,108.4c0,0.6,0,1.3,0,1.9c0,0.8,0.7,1.5,1.5,1.5c0.8,0,1.5-0.7,1.5-1.5c0-0.6,0-1.3,0-1.9
			c0-0.8-0.7-1.5-1.5-1.5C136.1,106.9,135.4,107.5,135.4,108.4L135.4,108.4z"/>
	</g>
</g>
<g>
	<g>
		<linearGradient id="SVGID_37_" gradientUnits="userSpaceOnUse" x1="156.0927" y1="80.8542" x2="158.9906" y2="80.8542">
			<stop  offset="0" style="stop-color:#163C94"/>
			<stop  offset="1" style="stop-color:#163C94"/>
		</linearGradient>
		<path class="st42" d="M157.5,82.4c1.9,0,1.9-3,0-3C155.6,79.4,155.6,82.4,157.5,82.4L157.5,82.4z"/>
	</g>
</g>
<g>
	<g>
		<linearGradient id="SVGID_38_" gradientUnits="userSpaceOnUse" x1="156.0927" y1="81.0625" x2="158.9906" y2="81.0625">
			<stop  offset="0" style="stop-color:#163C94"/>
			<stop  offset="1" style="stop-color:#163C94"/>
		</linearGradient>
		<path class="st43" d="M157.5,82.6c1.9,0,1.9-3,0-3C155.6,79.6,155.6,82.6,157.5,82.6L157.5,82.6z"/>
	</g>
</g>
<g>
	<g>
		<linearGradient id="SVGID_39_" gradientUnits="userSpaceOnUse" x1="156.2594" y1="81.0625" x2="159.1573" y2="81.0625">
			<stop  offset="0" style="stop-color:#163C94"/>
			<stop  offset="1" style="stop-color:#163C94"/>
		</linearGradient>
		<path class="st44" d="M157.7,82.6c1.9,0,1.9-3,0-3C155.8,79.6,155.8,82.6,157.7,82.6L157.7,82.6z"/>
	</g>
</g>
<g>
	<g>
		<linearGradient id="SVGID_40_" gradientUnits="userSpaceOnUse" x1="156.3635" y1="81.0208" x2="159.2615" y2="81.0208">
			<stop  offset="0" style="stop-color:#163C94"/>
			<stop  offset="1" style="stop-color:#163C94"/>
		</linearGradient>
		<path class="st45" d="M157.8,82.5c1.9,0,1.9-3,0-3C155.9,79.5,155.9,82.5,157.8,82.5L157.8,82.5z"/>
	</g>
</g>
<g>
	<g>
		<linearGradient id="SVGID_41_" gradientUnits="userSpaceOnUse" x1="156.426" y1="81.0208" x2="159.324" y2="81.0208">
			<stop  offset="0" style="stop-color:#163C94"/>
			<stop  offset="1" style="stop-color:#163C94"/>
		</linearGradient>
		<path class="st46" d="M157.9,82.5c1.9,0,1.9-3,0-3C155.9,79.5,155.9,82.5,157.9,82.5L157.9,82.5z"/>
	</g>
</g>
<g>
	<g>
		<linearGradient id="SVGID_42_" gradientUnits="userSpaceOnUse" x1="156.5094" y1="81.0625" x2="159.4073" y2="81.0625">
			<stop  offset="0" style="stop-color:#163C94"/>
			<stop  offset="1" style="stop-color:#163C94"/>
		</linearGradient>
		<path class="st47" d="M158,82.6c1.9,0,1.9-3,0-3C156,79.6,156,82.6,158,82.6L158,82.6z"/>
	</g>
</g>
<g>
	<g>
		<linearGradient id="SVGID_43_" gradientUnits="userSpaceOnUse" x1="156.5302" y1="81.1667" x2="159.4281" y2="81.1667">
			<stop  offset="0" style="stop-color:#163C94"/>
			<stop  offset="1" style="stop-color:#163C94"/>
		</linearGradient>
		<path class="st48" d="M158,82.7c1.9,0,1.9-3,0-3C156,79.7,156,82.7,158,82.7L158,82.7z"/>
	</g>
</g>
<g>
	<g>
		<linearGradient id="SVGID_44_" gradientUnits="userSpaceOnUse" x1="156.5302" y1="81.2708" x2="159.4281" y2="81.2708">
			<stop  offset="0" style="stop-color:#163C94"/>
			<stop  offset="1" style="stop-color:#163C94"/>
		</linearGradient>
		<path class="st49" d="M158,82.8c1.9,0,1.9-3,0-3C156,79.8,156,82.8,158,82.8L158,82.8z"/>
	</g>
</g>
<g>
	<g>
		<linearGradient id="SVGID_45_" gradientUnits="userSpaceOnUse" x1="156.5302" y1="81.3542" x2="159.4281" y2="81.3542">
			<stop  offset="0" style="stop-color:#163C94"/>
			<stop  offset="1" style="stop-color:#163C94"/>
		</linearGradient>
		<path class="st50" d="M158,82.9c1.9,0,1.9-3,0-3C156,79.9,156,82.9,158,82.9L158,82.9z"/>
	</g>
</g>
<g>
	<g>
		<linearGradient id="SVGID_46_" gradientUnits="userSpaceOnUse" x1="156.6552" y1="81.3333" x2="159.5531" y2="81.3333">
			<stop  offset="0" style="stop-color:#163C94"/>
			<stop  offset="1" style="stop-color:#163C94"/>
		</linearGradient>
		<path class="st51" d="M158.1,82.8c1.9,0,1.9-3,0-3C156.2,79.8,156.2,82.8,158.1,82.8L158.1,82.8z"/>
	</g>
</g>
<g>
	<g>
		<linearGradient id="SVGID_47_" gradientUnits="userSpaceOnUse" x1="156.5719" y1="80.9583" x2="159.4698" y2="80.9583">
			<stop  offset="0" style="stop-color:#163C94"/>
			<stop  offset="1" style="stop-color:#163C94"/>
		</linearGradient>
		<path class="st52" d="M158,82.5c1.9,0,1.9-3,0-3C156.1,79.5,156.1,82.5,158,82.5L158,82.5z"/>
	</g>
</g>
<g>
	<g>
		<linearGradient id="SVGID_48_" gradientUnits="userSpaceOnUse" x1="156.6135" y1="80.7917" x2="159.5115" y2="80.7917">
			<stop  offset="0" style="stop-color:#163C94"/>
			<stop  offset="1" style="stop-color:#163C94"/>
		</linearGradient>
		<path class="st53" d="M158.1,82.3c1.9,0,1.9-3,0-3C156.1,79.3,156.1,82.3,158.1,82.3L158.1,82.3z"/>
	</g>
</g>
<g>
	<g>
		<linearGradient id="SVGID_49_" gradientUnits="userSpaceOnUse" x1="156.6552" y1="80.6875" x2="159.5531" y2="80.6875">
			<stop  offset="0" style="stop-color:#163C94"/>
			<stop  offset="1" style="stop-color:#163C94"/>
		</linearGradient>
		<path class="st54" d="M158.1,82.2c1.9,0,1.9-3,0-3C156.2,79.2,156.2,82.2,158.1,82.2L158.1,82.2z"/>
	</g>
</g>
<g>
	<g>
		<linearGradient id="SVGID_50_" gradientUnits="userSpaceOnUse" x1="156.6969" y1="80.5625" x2="159.5948" y2="80.5625">
			<stop  offset="0" style="stop-color:#163C94"/>
			<stop  offset="1" style="stop-color:#163C94"/>
		</linearGradient>
		<path class="st55" d="M158.1,82.1c1.9,0,1.9-3,0-3C156.2,79.1,156.2,82.1,158.1,82.1L158.1,82.1z"/>
	</g>
</g>
<g>
	<g>
		<linearGradient id="SVGID_51_" gradientUnits="userSpaceOnUse" x1="157.834" y1="80.4375" x2="158.5827" y2="80.4375">
			<stop  offset="0" style="stop-color:#163C94"/>
			<stop  offset="1" style="stop-color:#163C94"/>
		</linearGradient>
		<path class="st56" d="M159.2,81.5C159.3,81.5,159.3,81.5,159.2,81.5c0.6-0.6,0.6-1.6,0-2.2c-0.6-0.6-1.5-0.6-2.1,0c0,0,0,0,0,0
			c-0.6,0.6-0.6,1.5,0,2.1C157.7,82.1,158.7,82.1,159.2,81.5L159.2,81.5z"/>
	</g>
</g>
<g>
	<g>
		<linearGradient id="SVGID_52_" gradientUnits="userSpaceOnUse" x1="157.8439" y1="80.3114" x2="158.756" y2="80.3114">
			<stop  offset="0" style="stop-color:#163C94"/>
			<stop  offset="1" style="stop-color:#163C94"/>
		</linearGradient>
		<path class="st57" d="M159.6,81.1C159.6,81.1,159.6,81.1,159.6,81.1c0.4-0.8,0.2-1.7-0.5-2.1c-0.7-0.4-1.7-0.2-2.1,0.5
			c0,0,0,0,0,0c-0.4,0.7-0.2,1.6,0.5,2.1C158.2,82,159.2,81.8,159.6,81.1L159.6,81.1z"/>
	</g>
</g>
<g>
	<g>
		<linearGradient id="SVGID_53_" gradientUnits="userSpaceOnUse" x1="157.6559" y1="80.3254" x2="158.7182" y2="80.3254">
			<stop  offset="0" style="stop-color:#163C94"/>
			<stop  offset="1" style="stop-color:#163C94"/>
		</linearGradient>
		<path class="st58" d="M157.3,79.1c-0.3,0.3-0.5,0.7-0.6,1.1c-0.2,0.8,0.3,1.7,1,1.8c0.8,0.2,1.6-0.2,1.8-1
			c-0.1,0.1-0.1,0.2-0.2,0.2c0.5-0.6,0.6-1.5,0-2.1C158.9,78.5,157.8,78.4,157.3,79.1L157.3,79.1z"/>
	</g>
</g>
<g>
	<g>
		<linearGradient id="SVGID_54_" gradientUnits="userSpaceOnUse" x1="157.4096" y1="81.1679" x2="158.6893" y2="81.1679">
			<stop  offset="0" style="stop-color:#163C94"/>
			<stop  offset="1" style="stop-color:#163C94"/>
		</linearGradient>
		<path class="st59" d="M156.7,80.6c0-0.2-0.1,0.2-0.1,0.2c-0.1,0.2-0.1,0.3-0.2,0.5c-0.2,0.7,0.3,1.7,1,1.8c0.8,0.2,1.6-0.3,1.8-1
			c0.2-0.5,0.4-1,0.3-1.5c-0.1-0.8-0.7-1.5-1.5-1.5C157.4,79.2,156.6,79.8,156.7,80.6L156.7,80.6z"/>
	</g>
</g>
<g>
	<g>
		<linearGradient id="SVGID_55_" gradientUnits="userSpaceOnUse" x1="157.5263" y1="81.8265" x2="158.2294" y2="81.8265">
			<stop  offset="0" style="stop-color:#163C94"/>
			<stop  offset="1" style="stop-color:#163C94"/>
		</linearGradient>
		<path class="st60" d="M158.9,82.9C158.9,82.9,159,82.9,158.9,82.9c0.7-0.6,0.6-1.7,0.1-2.2c-0.6-0.6-1.5-0.5-2.1,0
			c0,0-0.1,0-0.1,0.1c-0.6,0.5-0.5,1.6,0,2.1C157.4,83.5,158.3,83.4,158.9,82.9L158.9,82.9z"/>
	</g>
</g>
<g>
	<g>
		<linearGradient id="SVGID_56_" gradientUnits="userSpaceOnUse" x1="156.4885" y1="81.7083" x2="159.3865" y2="81.7083">
			<stop  offset="0" style="stop-color:#163C94"/>
			<stop  offset="1" style="stop-color:#163C94"/>
		</linearGradient>
		<path class="st61" d="M157.9,83.2c1.9,0,1.9-3,0-3C156,80.2,156,83.2,157.9,83.2L157.9,83.2z"/>
	</g>
</g>
<g>
	<g>
		<linearGradient id="SVGID_57_" gradientUnits="userSpaceOnUse" x1="156.4885" y1="81.5833" x2="159.3865" y2="81.5833">
			<stop  offset="0" style="stop-color:#163C94"/>
			<stop  offset="1" style="stop-color:#163C94"/>
		</linearGradient>
		<path class="st62" d="M157.9,83.1c1.9,0,1.9-3,0-3C156,80.1,156,83.1,157.9,83.1L157.9,83.1z"/>
	</g>
</g>
<g>
	<g>
		<linearGradient id="SVGID_58_" gradientUnits="userSpaceOnUse" x1="156.5719" y1="81.5417" x2="159.4698" y2="81.5417">
			<stop  offset="0" style="stop-color:#163C94"/>
			<stop  offset="1" style="stop-color:#163C94"/>
		</linearGradient>
		<path class="st63" d="M158,83c1.9,0,1.9-3,0-3C156.1,80,156.1,83,158,83L158,83z"/>
	</g>
</g>
<g>
	<g>
		<linearGradient id="SVGID_59_" gradientUnits="userSpaceOnUse" x1="123.7344" y1="20.875" x2="124.7344" y2="20.875">
			<stop  offset="0" style="stop-color:#163C94"/>
			<stop  offset="1" style="stop-color:#163C94"/>
		</linearGradient>
		<path class="st64" d="M122.7,20.9C122.7,20.9,122.7,20.9,122.7,20.9c0,0.8,0.7,1.6,1.5,1.5c0.8,0,1.5-0.7,1.5-1.5c0,0,0,0,0,0
			c0-0.8-0.7-1.5-1.5-1.5C123.4,19.4,122.7,20,122.7,20.9L122.7,20.9z"/>
	</g>
</g>
<g>
	<g>
		<linearGradient id="SVGID_60_" gradientUnits="userSpaceOnUse" x1="123.0354" y1="20.9219" x2="125.9333" y2="20.9219">
			<stop  offset="0" style="stop-color:#163C94"/>
			<stop  offset="1" style="stop-color:#163C94"/>
		</linearGradient>
		<path class="st65" d="M124.5,22.4c1.9,0,1.9-3,0-3C122.6,19.4,122.6,22.4,124.5,22.4L124.5,22.4z"/>
	</g>
</g>
<g>
	<g>
		<linearGradient id="SVGID_61_" gradientUnits="userSpaceOnUse" x1="122.9885" y1="20.7656" x2="125.8865" y2="20.7656">
			<stop  offset="0" style="stop-color:#163C94"/>
			<stop  offset="1" style="stop-color:#163C94"/>
		</linearGradient>
		<path class="st66" d="M124.4,22.3c1.9,0,1.9-3,0-3C122.5,19.3,122.5,22.3,124.4,22.3L124.4,22.3z"/>
	</g>
</g>
<g>
	<g>
		<linearGradient id="SVGID_62_" gradientUnits="userSpaceOnUse" x1="122.9104" y1="20.6875" x2="125.8083" y2="20.6875">
			<stop  offset="0" style="stop-color:#163C94"/>
			<stop  offset="1" style="stop-color:#163C94"/>
		</linearGradient>
		<path class="st67" d="M124.4,22.2c1.9,0,1.9-3,0-3C122.4,19.2,122.4,22.2,124.4,22.2L124.4,22.2z"/>
	</g>
</g>
<g>
	<g>
		<linearGradient id="SVGID_63_" gradientUnits="userSpaceOnUse" x1="123.0042" y1="20.6406" x2="125.9021" y2="20.6406">
			<stop  offset="0" style="stop-color:#163C94"/>
			<stop  offset="1" style="stop-color:#163C94"/>
		</linearGradient>
		<path class="st68" d="M124.5,22.1c1.9,0,1.9-3,0-3C122.5,19.1,122.5,22.1,124.5,22.1L124.5,22.1z"/>
	</g>
</g>
<g>
	<g>
		<linearGradient id="SVGID_64_" gradientUnits="userSpaceOnUse" x1="123.1448" y1="20.6094" x2="126.0427" y2="20.6094">
			<stop  offset="0" style="stop-color:#163C94"/>
			<stop  offset="1" style="stop-color:#163C94"/>
		</linearGradient>
		<path class="st69" d="M124.6,22.1c1.9,0,1.9-3,0-3C122.7,19.1,122.7,22.1,124.6,22.1L124.6,22.1z"/>
	</g>
</g>
<g>
	<g>
		<linearGradient id="SVGID_65_" gradientUnits="userSpaceOnUse" x1="123.2698" y1="20.625" x2="126.1677" y2="20.625">
			<stop  offset="0" style="stop-color:#163C94"/>
			<stop  offset="1" style="stop-color:#163C94"/>
		</linearGradient>
		<path class="st70" d="M124.7,22.1c1.9,0,1.9-3,0-3C122.8,19.1,122.8,22.1,124.7,22.1L124.7,22.1z"/>
	</g>
</g>
<g>
	<g>
		<linearGradient id="SVGID_66_" gradientUnits="userSpaceOnUse" x1="123.3479" y1="20.6406" x2="126.2458" y2="20.6406">
			<stop  offset="0" style="stop-color:#163C94"/>
			<stop  offset="1" style="stop-color:#163C94"/>
		</linearGradient>
		<path class="st71" d="M124.8,22.1c1.9,0,1.9-3,0-3C122.9,19.1,122.9,22.1,124.8,22.1L124.8,22.1z"/>
	</g>
</g>
<g>
	<g>
		<linearGradient id="SVGID_67_" gradientUnits="userSpaceOnUse" x1="124.128" y1="20.6819" x2="125.362" y2="20.6819">
			<stop  offset="0" style="stop-color:#163C94"/>
			<stop  offset="1" style="stop-color:#163C94"/>
		</linearGradient>
		<path class="st72" d="M125.4,19.3c0.2,0-0.3-0.2-0.4-0.2c-0.3-0.1-0.6-0.1-0.8-0.1c-0.8-0.1-1.5,0.8-1.5,1.5
			c0,0.9,0.7,1.4,1.5,1.5c-0.3,0,0.3,0.1,0.3,0.1c0.3,0.1,0.6,0.1,0.9,0.2c0.8,0.1,1.5-0.8,1.5-1.5C126.8,20,126.2,19.4,125.4,19.3
			L125.4,19.3z"/>
	</g>
</g>
<g>
	<g>
		<linearGradient id="SVGID_68_" gradientUnits="userSpaceOnUse" x1="123.919" y1="20.6736" x2="125.6156" y2="20.6736">
			<stop  offset="0" style="stop-color:#163C94"/>
			<stop  offset="1" style="stop-color:#163C94"/>
		</linearGradient>
		<path class="st73" d="M125.6,19.3C125.8,19.3,125.6,19.3,125.6,19.3c-0.2-0.1-0.3-0.1-0.5-0.2c-0.1,0-0.3-0.1-0.4-0.1
			c0,0-0.6-0.1-0.3,0c-0.8-0.1-1.7,0.2-1.8,1c-0.2,0.7,0.2,1.7,1,1.8c0.2,0,0.5,0,0.7,0.1c-0.2,0,0.1,0,0.1,0
			c0.4,0.1,0.7,0.2,1.1,0.2c0.8,0.1,1.5-0.7,1.5-1.5C127.1,20,126.4,19.4,125.6,19.3L125.6,19.3z"/>
	</g>
</g>
<g>
	<g>
		<linearGradient id="SVGID_69_" gradientUnits="userSpaceOnUse" x1="124.1737" y1="20.6618" x2="125.8063" y2="20.6618">
			<stop  offset="0" style="stop-color:#163C94"/>
			<stop  offset="1" style="stop-color:#163C94"/>
		</linearGradient>
		<path class="st74" d="M126.1,19.4c-0.5-0.1-0.9-0.3-1.4-0.4c-0.8-0.2-1.7,0.3-1.8,1c-0.2,0.8,0.2,1.6,1,1.8
			c0.5,0.1,0.9,0.2,1.4,0.4c0.8,0.2,1.7-0.3,1.8-1C127.3,20.4,126.9,19.6,126.1,19.4L126.1,19.4z"/>
	</g>
</g>
<g>
	<g>
		<linearGradient id="SVGID_70_" gradientUnits="userSpaceOnUse" x1="124.2492" y1="20.6543" x2="125.5899" y2="20.6543">
			<stop  offset="0" style="stop-color:#163C94"/>
			<stop  offset="1" style="stop-color:#163C94"/>
		</linearGradient>
		<path class="st75" d="M125.5,19.3c0.3,0-0.2-0.1-0.2-0.1c-0.2,0-0.4-0.1-0.6-0.1c-0.8-0.2-1.7,0.3-1.8,1c-0.2,0.8,0.2,1.6,1,1.8
			c0.5,0.1,1,0.3,1.6,0.3c0.8,0.1,1.5-0.8,1.5-1.5C127,19.9,126.4,19.4,125.5,19.3L125.5,19.3z"/>
	</g>
</g>
<g>
	<g>
		<linearGradient id="SVGID_71_" gradientUnits="userSpaceOnUse" x1="124.2139" y1="20.5879" x2="125.3215" y2="20.5879">
			<stop  offset="0" style="stop-color:#163C94"/>
			<stop  offset="1" style="stop-color:#163C94"/>
		</linearGradient>
		<path class="st76" d="M125.3,19.2c0.3,0-0.2-0.1-0.3-0.1c-0.3-0.1-0.5-0.1-0.8-0.1c-0.8,0-1.5,0.7-1.5,1.5c0,0.8,0.7,1.5,1.5,1.5
			c0.2,0,0.2,0,0.1,0c0.1,0,0.1,0,0.2,0.1c0.3,0.1,0.5,0.1,0.8,0.1c0.8,0,1.5-0.7,1.5-1.5C126.8,19.8,126.2,19.2,125.3,19.2
			L125.3,19.2z"/>
	</g>
</g>
<g>
	<g>
		<linearGradient id="SVGID_72_" gradientUnits="userSpaceOnUse" x1="124.0667" y1="20.7188" x2="126.9646" y2="20.7188">
			<stop  offset="0" style="stop-color:#163C94"/>
			<stop  offset="1" style="stop-color:#163C94"/>
		</linearGradient>
		<path class="st77" d="M125.5,22.2c1.9,0,1.9-3,0-3C123.6,19.2,123.6,22.2,125.5,22.2L125.5,22.2z"/>
	</g>
</g>
<g>
	<g>
		<linearGradient id="SVGID_73_" gradientUnits="userSpaceOnUse" x1="124.1917" y1="20.75" x2="127.0896" y2="20.75">
			<stop  offset="0" style="stop-color:#163C94"/>
			<stop  offset="1" style="stop-color:#163C94"/>
		</linearGradient>
		<path class="st78" d="M125.6,22.3c1.9,0,1.9-3,0-3C123.7,19.3,123.7,22.3,125.6,22.3L125.6,22.3z"/>
	</g>
</g>
<g>
	<g>
		<linearGradient id="SVGID_74_" gradientUnits="userSpaceOnUse" x1="124.2698" y1="20.7969" x2="127.1677" y2="20.7969">
			<stop  offset="0" style="stop-color:#163C94"/>
			<stop  offset="1" style="stop-color:#163C94"/>
		</linearGradient>
		<path class="st79" d="M125.7,22.3c1.9,0,1.9-3,0-3C123.8,19.3,123.8,22.3,125.7,22.3L125.7,22.3z"/>
	</g>
</g>
<g>
	<g>
		<linearGradient id="SVGID_75_" gradientUnits="userSpaceOnUse" x1="136.8068" y1="110.9063" x2="138.2557" y2="110.9063">
			<stop  offset="0" style="stop-color:#163C94"/>
			<stop  offset="1" style="stop-color:#163C94"/>
		</linearGradient>
		<path class="st80" d="M137.5,111.7c1,0,1-1.5,0-1.5C136.6,110.2,136.6,111.7,137.5,111.7L137.5,111.7z"/>
	</g>
</g>
<g>
	<g>
		<linearGradient id="SVGID_76_" gradientUnits="userSpaceOnUse" x1="137.6142" y1="111.3" x2="138.3387" y2="111.3">
			<stop  offset="0" style="stop-color:#163C94"/>
			<stop  offset="1" style="stop-color:#163C94"/>
		</linearGradient>
		<path class="st81" d="M138,111.7c0.5,0,0.5-0.8,0-0.8C137.5,110.9,137.5,111.7,138,111.7L138,111.7z"/>
	</g>
</g>
<g>
	<g>
		<linearGradient id="SVGID_77_" gradientUnits="userSpaceOnUse" x1="137.6554" y1="111.2941" x2="138.3799" y2="111.2941">
			<stop  offset="0" style="stop-color:#163C94"/>
			<stop  offset="1" style="stop-color:#163C94"/>
		</linearGradient>
		<path class="st82" d="M138,111.7c0.5,0,0.5-0.8,0-0.8C137.5,110.9,137.5,111.7,138,111.7L138,111.7z"/>
	</g>
</g>
<g>
	<g>
		<linearGradient id="SVGID_78_" gradientUnits="userSpaceOnUse" x1="137.6319" y1="111.2941" x2="138.3564" y2="111.2941">
			<stop  offset="0" style="stop-color:#163C94"/>
			<stop  offset="1" style="stop-color:#163C94"/>
		</linearGradient>
		<path class="st83" d="M138,111.7c0.5,0,0.5-0.8,0-0.8C137.5,110.9,137.5,111.7,138,111.7L138,111.7z"/>
	</g>
</g>
<g>
	<g>
		<linearGradient id="SVGID_79_" gradientUnits="userSpaceOnUse" x1="137.4473" y1="111.3395" x2="138.0721" y2="111.3395">
			<stop  offset="0" style="stop-color:#163C94"/>
			<stop  offset="1" style="stop-color:#163C94"/>
		</linearGradient>
		<path class="st84" d="M137.5,111.7c0.2,0,0.4,0,0.7,0c0.5-0.1,0.3-0.8-0.2-0.7c-0.1,0-0.3,0-0.5,0
			C137,110.9,137,111.7,137.5,111.7L137.5,111.7z"/>
	</g>
</g>
</svg>
